<?xml version="1.0" encoding="UTF-8"?><svg id="_레이어_1" xmlns="http://www.w3.org/2000/svg" viewBox="0 0 100 100"><defs><style>.cls-1{fill:#f9cf34;}</style></defs><path class="cls-1" d="m51.6,69.16c-12.4,0-23.71-2.38-32.24-4.93l-6.95,11.85c32.04,11.26,75.2,0,75.2,0l-7.26-11.77c-9.73,3.53-19.54,4.84-28.75,4.84Z"/><path class="cls-1" d="m78.24,60.9L49.06,13.58l-27.68,47.19c14.14,4.11,35.67,7.55,56.86.13Zm-20.9-24.08c1.79-1.13,2.41,3.95,2.41,6.16s-.77,4.35-2.41,4.35-3.66-8.2,0-10.51Zm-7.51,12.12c1.79-1.13,2.41,3.95,2.41,6.16s-.77,4.35-2.41,4.35-3.66-8.2,0-10.51Zm-7.59-12.12c1.79-1.13,2.41,3.95,2.41,6.16s-.77,4.35-2.41,4.35-3.66-8.2,0-10.51Z"/></svg>