<?xml version="1.0" encoding="UTF-8"?><svg id="_레이어_1" xmlns="http://www.w3.org/2000/svg" viewBox="0 0 100 100"><defs><style>.cls-1{fill:#f9cf34;}</style></defs><path class="cls-1" d="m49.52,57.54c-1.12-1.1-2.4-2.35-4.03-3.83-.81-.73-1.64-1.39-2.48-2.01-.81,3.6-1.59,7.5-2.27,11.58,1.05.66,2.12,1.35,3.23,2.08,2.64,1.75,4.75,3.43,6.61,4.91,2.77,2.2,5.05,4,7.89,5.13-.13-4.01-.12-8.33-.03-12.6-3.95-.39-5.63-2.02-8.92-5.25Z"/><path class="cls-1" d="m53.68,28.06l-.19-4.91s21.55,1.92,23.19,1.73c1.64-.19,3.85-2.89,1.83-3.95s-11.93-1.35-21.55-2.79c-9.62-1.44-21.41-5.48-23.96-5.48-1.04,0-3.37,4.04-1.44,5.39,1.92,1.35,19.34,4.72,19.34,4.72l-.77,5.39c-10.1-.38-28.39,9.33-28.39,29.54s16.07,29.06,29.15,29.06,29.26-5.77,29.26-29.93c0-25.45-26.46-28.77-26.46-28.77Zm8.5,34.79c-.58.03-1.13.04-1.64.04-.22,0-.42,0-.63-.01-.09,4.43-.09,8.91.05,13.03,2.19.64,4.76.9,8.11.69.4-.02.75.28.78.68.03.4-.28.75-.68.78-.78.05-1.53.07-2.24.07-2.29,0-4.21-.25-5.91-.7.08,1.87.2,3.66.36,5.31.04.4-.26.76-.66.8-.02,0-.05,0-.07,0-.37,0-.69-.28-.73-.66-.17-1.83-.3-3.82-.38-5.9-3.34-1.18-5.86-3.19-8.86-5.57-1.84-1.46-3.92-3.12-6.51-4.83-.92-.61-1.81-1.18-2.68-1.73-.76,4.85-1.35,9.9-1.62,14.92-.02.39-.34.69-.73.69-.01,0-.03,0-.04,0-.4-.02-.71-.37-.69-.77.29-5.28.92-10.6,1.74-15.68-7.8-4.81-13.4-7.25-13.47-7.28-.37-.16-.54-.59-.38-.96.16-.37.59-.54.96-.38.06.03,5.51,2.4,13.15,7.06.69-4.11,1.5-8.05,2.32-11.66-6.53-4.39-13.02-5.64-13.1-5.66-.4-.07-.66-.45-.59-.85.07-.4.45-.66.85-.59.32.06,6.61,1.26,13.19,5.56,2.48-10.57,5-17.98,5.04-18.12.13-.38.54-.58.93-.45.38.13.58.55.45.93-.05.14-2.63,7.74-5.13,18.53,1.04.75,2.09,1.57,3.1,2.49,1.66,1.5,2.95,2.76,4.08,3.87,3.12,3.06,4.57,4.48,7.93,4.84.33-13.51,1.38-26.12,1.4-26.31.03-.4.4-.7.79-.67.4.03.7.39.67.79-.02.2-1.07,12.81-1.4,26.28.65.01,1.37,0,2.18-.04,8.03-.37,14.6-5.93,14.67-5.98.31-.26.77-.23,1.03.08s.23.77-.08,1.03c-.28.24-7.03,5.94-15.55,6.33Z"/></svg>