<?xml version="1.0" encoding="UTF-8"?><svg id="_레이어_1" xmlns="http://www.w3.org/2000/svg" viewBox="0 0 100 100"><defs><style>.cls-1{fill:none;}.cls-2{fill:#f9cf34;}</style></defs><path class="cls-2" d="m46.43,33.24s-4.76-2.83-7.22-9.35c0,0,2.74-.16,4.91,1.13,0,0-2.89-5.05-2.74-8.95,0,0,2.17,2.45,3.61,3.46,0,0-.58-5.63.43-8.52,0,0,.87,1.59,3.32,2.74l2.31-6.93s3.46,3.75,3.32,6.5c0,0,2.89-2.03,3.75-3.18,0,0,1.01,5.64,0,8.38,0,0,3.03-1.01,4.19-2.31,0,0-.72,5.24-2.31,7.67,0,0,3.32.69,5.2-.31,0,0-2.74,6.88-7.65,9.72l-11.11-.06Z"/><path class="cls-1" d="m72.46,59.69c-.61-.54-1.22-1.07-1.84-1.6.24.82.45,1.66.65,2.51.39-.3.79-.6,1.18-.91Z"/><path class="cls-1" d="m30.76,63.07c.39.26.8.54,1.21.82.16-1.09.36-2.16.59-3.2-.71.91-1.32,1.71-1.8,2.38Z"/><path class="cls-2" d="m65.98,51.69c.57-.47,1.14-.94,1.72-1.41-.95-2.04-1.97-3.9-2.98-5.59-1.32.97-2.61,1.97-3.88,2.97,1.69,1.3,3.41,2.65,5.14,4.04Z"/><path class="cls-2" d="m69.46,54.55c-.3-.82-.62-1.63-.95-2.41-.33.27-.66.54-.99.81.65.53,1.29,1.07,1.94,1.61Z"/><path class="cls-2" d="m72.41,70c0-2.51-.26-4.94-.68-7.28-1.34,1.06-2.64,2.13-3.9,3.21,1.51,1.31,3.04,2.67,4.58,4.08Z"/><path class="cls-2" d="m36.29,56.21c-1.46,1.67-2.71,3.19-3.73,4.49-.23,1.04-.43,2.1-.59,3.2,1.63,1.11,3.43,2.37,5.38,3.77,1.72-1.99,3.67-4.16,5.83-6.43-2.44-1.81-4.75-3.5-6.89-5.03Z"/><path class="cls-2" d="m67.36,78.09c1.43-1.2,3-2.41,4.78-3.61.07-.62.13-1.26.17-1.92-2.01-1.86-4-3.64-5.96-5.35-2,1.76-3.87,3.51-5.63,5.24,2.24,1.84,4.46,3.73,6.65,5.64Z"/><path class="cls-2" d="m48.92,41.31c-1.83-1.29-3.55-2.47-5.13-3.53-1.3,1.57-2.93,3.75-4.6,6.48,1.13.74,2.35,1.54,3.62,2.4,1.87-1.76,3.91-3.56,6.1-5.34Z"/><path class="cls-2" d="m59.25,46.43c1.45-1.15,2.93-2.29,4.45-3.41-1.89-2.95-3.66-5.21-4.81-6.58-2.37,1.55-4.62,3.15-6.72,4.78,2.25,1.61,4.63,3.35,7.08,5.21Z"/><path class="cls-2" d="m41.38,48.03c-1.11-.75-2.16-1.44-3.16-2.09-1.16,2.06-2.3,4.34-3.3,6.9.36.25.71.51,1.09.77,1.58-1.75,3.37-3.63,5.38-5.58Z"/><path class="cls-2" d="m57.59,34.97s-.04-.04-.04-.04l-11.11-.06s-.52.49-1.36,1.42c1.66,1.13,3.5,2.39,5.44,3.76,2.21-1.73,4.57-3.44,7.08-5.08Z"/><path class="cls-2" d="m66.34,64.64c1.58-1.35,3.21-2.7,4.93-4.04-.2-.85-.41-1.69-.65-2.51-1.53-1.32-3.07-2.61-4.61-3.87-2.04,1.74-4.01,3.49-5.89,5.24,2.02,1.63,4.1,3.36,6.22,5.17Z"/><path class="cls-2" d="m58.59,58.23c1.88-1.76,3.85-3.52,5.89-5.26-1.74-1.4-3.48-2.76-5.19-4.07-2.11,1.72-4.12,3.46-6.04,5.2,1.72,1.3,3.51,2.68,5.34,4.13Z"/><path class="cls-2" d="m57.69,47.69c-2.47-1.86-4.86-3.61-7.12-5.22-2.2,1.77-4.23,3.55-6.11,5.3,2.23,1.54,4.65,3.26,7.2,5.15,1.91-1.75,3.93-3.5,6.03-5.23Z"/><path class="cls-2" d="m53.12,66.36c2.01,1.57,4.05,3.19,6.08,4.85,1.77-1.74,3.65-3.51,5.66-5.29-2.1-1.79-4.16-3.5-6.16-5.12-1.96,1.87-3.82,3.72-5.58,5.55Z"/><path class="cls-2" d="m57.16,59.59c-1.84-1.46-3.64-2.85-5.37-4.15-2.02,1.88-3.91,3.74-5.68,5.56,1.78,1.33,3.6,2.72,5.46,4.16,1.76-1.83,3.63-3.7,5.59-5.57Z"/><path class="cls-2" d="m50.21,54.27c-2.55-1.89-4.96-3.6-7.19-5.12-2.02,1.95-3.84,3.84-5.43,5.6,2.16,1.55,4.49,3.25,6.95,5.08,1.77-1.81,3.66-3.68,5.67-5.56Z"/><path class="cls-2" d="m51.76,67.78c-2.08,2.2-4.01,4.34-5.78,6.38,1.93,1.52,3.91,3.12,5.92,4.8,1.77-2.03,3.74-4.17,5.91-6.36-2.03-1.65-4.05-3.26-6.05-4.82Z"/><path class="cls-2" d="m53.39,80.22c2.14,1.82,4.29,3.73,6.43,5.72,1.52-2.03,3.5-4.25,6.05-6.55-2.15-1.87-4.34-3.73-6.55-5.54-2.18,2.21-4.16,4.35-5.93,6.38Z"/><path class="cls-2" d="m50.22,66.58c-1.87-1.44-3.7-2.83-5.48-4.17-2.15,2.26-4.1,4.42-5.82,6.4,1.76,1.29,3.61,2.67,5.53,4.15,1.77-2.04,3.69-4.19,5.77-6.39Z"/><path class="cls-2" d="m40.66,80.58c1.81,1.5,3.71,3.19,5.71,5.13,1.24-1.61,2.67-3.39,4.27-5.28-2.01-1.68-3.99-3.28-5.92-4.79-1.48,1.74-2.83,3.4-4.06,4.95Z"/><path class="cls-2" d="m37.66,70.29c-1.6,1.89-2.96,3.58-4.08,5.01,1.68,1.11,3.55,2.45,5.57,4.05,1.22-1.54,2.57-3.18,4.04-4.91-1.92-1.48-3.77-2.87-5.53-4.15Z"/><path class="cls-2" d="m34.24,54.74c-.17.49-.35.96-.51,1.46.31-.37.64-.74.97-1.13-.16-.11-.31-.22-.46-.33Z"/><path class="cls-2" d="m58.95,90.87c.8-.2,1.61-.45,2.44-.78-.41-.4-.82-.79-1.23-1.18-.46.69-.86,1.35-1.21,1.96Z"/><path class="cls-2" d="m52.13,81.69c-1.65,1.94-3.1,3.76-4.36,5.4,1.38,1.39,2.8,2.89,4.24,4.5.35,0,.67,0,.97,0,.94,0,2.14-.06,3.47-.24.54-1.09,1.28-2.4,2.25-3.84-2.18-2.03-4.38-3.98-6.56-5.84Z"/><path class="cls-2" d="m45.09,90.72c1.44.37,2.84.59,4.11.71-.89-.95-1.77-1.88-2.63-2.75-.54.73-1.03,1.4-1.47,2.03Z"/><path class="cls-2" d="m32.36,76.9c-.1.13-.2.27-.3.39.65,2.97,1.76,5.32,3.16,7.19.8-1.08,1.7-2.27,2.69-3.54-2.02-1.6-3.89-2.94-5.56-4.04Z"/><path class="cls-2" d="m39.42,82.16c-1.09,1.4-2.06,2.68-2.9,3.83,1.96,2.01,4.28,3.31,6.6,4.13.59-.84,1.27-1.79,2.04-2.82-2.01-1.94-3.92-3.65-5.74-5.15Z"/><path class="cls-2" d="m36.08,69.15c-1.55-1.12-3.02-2.15-4.38-3.08-.17,1.6-.28,3.24-.28,4.94,0,1.06.05,2.06.14,3.02.12.07.24.15.37.23,1.13-1.45,2.52-3.17,4.15-5.1Z"/><path class="cls-2" d="m61.29,87.31c.66.63,1.32,1.26,1.98,1.91,2.42-1.32,4.7-3.37,6.39-6.47-.75-.68-1.52-1.37-2.29-2.05-2.6,2.33-4.59,4.59-6.09,6.61Z"/><path class="cls-2" d="m68.86,79.41c.56.5,1.12.99,1.67,1.49.46-1.11.85-2.32,1.15-3.68-1,.73-1.95,1.46-2.82,2.19Z"/><path class="cls-2" d="m31.92,76.62c.04.23.09.45.13.67.09-.12.2-.26.3-.39-.15-.1-.29-.18-.43-.28Z"/><path class="cls-2" d="m31.93,74.25c-.12-.08-.25-.15-.37-.23.02.21.03.42.06.62.1-.13.2-.26.31-.4Z"/></svg>