<?xml version="1.0" encoding="UTF-8"?><svg id="_레이어_1" xmlns="http://www.w3.org/2000/svg" viewBox="0 0 100 100"><defs><style>.cls-1{fill:#f9cf34;}</style></defs><path class="cls-1" d="m50,16.12c18.68,0,33.88,15.2,33.88,33.88s-15.2,33.88-33.88,33.88-33.88-15.2-33.88-33.88S31.32,16.12,50,16.12m0-3.9c-20.86,0-37.78,16.91-37.78,37.78s16.91,37.78,37.78,37.78,37.78-16.91,37.78-37.78S70.86,12.22,50,12.22h0Z"/><path class="cls-1" d="m50.21,42.49c2.41,0,7.12-12.41,7.12-17.61s-3.8-4.81-7.34-4.81-6.14,1.54-6.14,4.52,4.04,17.9,6.35,17.9Z"/><path class="cls-1" d="m50.96,56.88c-2.41,0-7.12,12.41-7.12,17.61s3.8,4.81,7.34,4.81,6.14-1.54,6.14-4.52-4.04-17.9-6.35-17.9Z"/><path class="cls-1" d="m55.41,44.34c1.7,1.7,13.81-3.74,17.49-7.41,3.67-3.67.72-6.09-1.79-8.59-2.5-2.5-5.43-3.25-7.54-1.14s-9.8,15.51-8.17,17.14Z"/><path class="cls-1" d="m45.76,55.04c-1.7-1.7-13.81,3.74-17.49,7.41-3.67,3.67-.72,6.09,1.79,8.59s5.43,3.25,7.54,1.14,9.8-15.51,8.17-17.14Z"/><path class="cls-1" d="m57.78,49.32c0,2.41,12.41,7.12,17.61,7.12s4.81-3.8,4.81-7.34c0-3.54-1.54-6.14-4.52-6.14-2.98,0-17.9,4.04-17.9,6.35Z"/><path class="cls-1" d="m43.39,50.06c0-2.41-12.41-7.12-17.61-7.12s-4.81,3.8-4.81,7.34,1.54,6.14,4.52,6.14,17.9-4.04,17.9-6.35Z"/><path class="cls-1" d="m55.94,54.51c-1.7,1.7,3.74,13.81,7.41,17.49,3.67,3.67,6.09.72,8.59-1.79s3.25-5.43,1.14-7.54c-2.11-2.11-15.51-9.8-17.14-8.17Z"/><path class="cls-1" d="m45.23,44.86c1.7-1.7-3.74-13.81-7.41-17.49-3.67-3.67-6.09-.72-8.59,1.79-2.5,2.5-3.25,5.43-1.14,7.54,2.11,2.11,15.51,9.8,17.14,8.17Z"/></svg>