<?xml version="1.0" encoding="UTF-8"?><svg id="_레이어_1" xmlns="http://www.w3.org/2000/svg" viewBox="0 0 100 100"><defs><style>.cls-1{fill:#f9cf34;}</style></defs><path class="cls-1" d="m81.82,24.35c3.46-.13,2.6,15.73,2.6,15.73,0,0,5.05,2.01,5.05,10.1s-10.54,29.02-45.47,29.02c-21.8,0-31.97-16.79-31.32-18.72.5-1.51,22.6,3.63,40.08-1.83,15.11-4.72,23.58-16.17,25.02-22.9s.29-11.26,4.04-11.4Z"/><path class="cls-1" d="m75.28,29.21c.87.48-1.85,18.95-23.58,25.98-19.34,6.25-39.66,2.02-39.45-12.41.04-2.73,10.63,4.94,26.08,4.62,26.16-.54,34.15-19.74,36.95-18.19Z"/><path class="cls-1" d="m64.79,34.51c.51.76-11.16,10.13-26.75,9.3-15.59-.83-20.21-15.55-19.15-16.9.66-.83,8.5,7.11,22.32,8.47s22.74-2.12,23.58-.87Z"/></svg>