<svg width="18" height="18" viewBox="0 0 18 18" fill="none" xmlns="http://www.w3.org/2000/svg">
<path d="M2.7133 3.73816L1.40772 3.17863C0.829334 2.93076 0.197001 3.49552 0.276448 4.11974C0.726226 7.65373 -0.962204 10.0792 0.887423 13.2351C2.67951 16.2929 6.23552 17.6108 9.63885 17.1246C12.2433 16.7526 14.4622 13.6815 15.3593 11.9969C15.4371 11.8507 15.5283 11.7134 15.6374 11.5888L17.8181 9.09653C18.2307 8.62499 17.8959 7.88701 17.2693 7.88701H15.0794C14.5076 7.88701 14.0592 7.39603 14.111 6.82659L14.374 3.93353C14.4354 3.25815 13.804 2.72894 13.1497 2.90737L9.92174 3.78774C9.47455 3.90969 9.00345 3.69906 8.79616 3.28448L7.81124 1.31464C7.51442 0.721003 6.72325 0.592615 6.25394 1.06193L3.78392 3.53197C3.50276 3.81312 3.07876 3.89478 2.7133 3.73816Z" fill="#CBC7BF"/>
</svg>
