<svg width="16" height="16" viewBox="0 0 16 16" fill="none" xmlns="http://www.w3.org/2000/svg">
<path d="M4.7666 14.0667C4.59993 13.9 4.5166 13.7027 4.5166 13.4747C4.5166 13.2471 4.59993 13.05 4.7666 12.8833L9.64994 8.00001L4.74993 3.10001C4.59438 2.94445 4.5166 2.75001 4.5166 2.51667C4.5166 2.28334 4.59993 2.08334 4.7666 1.91667C4.93327 1.75001 5.1306 1.66667 5.3586 1.66667C5.58616 1.66667 5.78327 1.75001 5.94993 1.91667L11.5499 7.53334C11.6166 7.60001 11.6639 7.67223 11.6919 7.75001C11.7195 7.82778 11.7333 7.91112 11.7333 8.00001C11.7333 8.08889 11.7195 8.17223 11.6919 8.25001C11.6639 8.32778 11.6166 8.40001 11.5499 8.46667L5.93327 14.0833C5.77771 14.2389 5.58616 14.3167 5.3586 14.3167C5.1306 14.3167 4.93327 14.2333 4.7666 14.0667Z" fill="#FFFBF3"/>
</svg>
