<svg width="24" height="24" viewBox="0 0 24 24" fill="none" xmlns="http://www.w3.org/2000/svg">
<path d="M6.33319 3.64317C7.93657 2.57183 9.82164 2 11.75 2C14.3351 2.00248 16.8136 3.03051 18.6416 4.85845C20.4695 6.68639 21.4975 9.1649 21.5 11.75C21.5 13.6784 20.9282 15.5634 19.8568 17.1668C18.7855 18.7702 17.2627 20.0199 15.4812 20.7578C13.6996 21.4958 11.7392 21.6889 9.84787 21.3127C7.95656 20.9365 6.21927 20.0079 4.85571 18.6443C3.49215 17.2807 2.56355 15.5434 2.18735 13.6521C1.81114 11.7608 2.00422 9.80042 2.74218 8.01884C3.48013 6.23726 4.72982 4.71452 6.33319 3.64317Z" fill="#ADA9A1"/>
<path d="M15.2886 14.1724C15.4294 14.3146 15.5084 14.5066 15.5084 14.7068C15.5084 14.9069 15.4294 15.0989 15.2886 15.2411C15.1452 15.3797 14.9536 15.4572 14.7542 15.4572C14.5548 15.4572 14.3632 15.3797 14.2198 15.2411L11.7542 12.7661L9.28859 15.2411C9.14524 15.3797 8.95363 15.4572 8.75422 15.4572C8.55481 15.4572 8.3632 15.3797 8.21984 15.2411C8.07901 15.0989 8 14.9069 8 14.7068C8 14.5066 8.07901 14.3146 8.21984 14.1724L10.6948 11.7068L8.21984 9.24113C8.10025 9.09541 8.03913 8.91041 8.04838 8.72213C8.05762 8.53384 8.13658 8.35572 8.26988 8.22242C8.40318 8.08912 8.5813 8.01016 8.76959 8.00091C8.95788 7.99167 9.14287 8.05279 9.28859 8.17238L11.7542 10.6474L14.2198 8.17238C14.3656 8.05279 14.5506 7.99167 14.7389 8.00091C14.9271 8.01016 15.1053 8.08912 15.2386 8.22242C15.3719 8.35572 15.4508 8.53384 15.4601 8.72213C15.4693 8.91041 15.4082 9.09541 15.2886 9.24113L12.8136 11.7068L15.2886 14.1724Z" fill="#FFFBF3"/>
</svg>
