<svg width="30" height="26" viewBox="0 0 30 26" fill="none" xmlns="http://www.w3.org/2000/svg">
<g filter="url(#filter0_d_177_525)">
<path d="M22.6361 4.20036C21.212 3.53406 19.6893 3.04982 18.0973 2.77409C17.9018 3.12757 17.6734 3.603 17.5159 3.98121C15.8236 3.72671 14.1469 3.72671 12.4857 3.98121C12.3283 3.603 12.0947 3.12757 11.8974 2.77409C10.3037 3.04982 8.77928 3.53584 7.35518 4.20389C4.48276 8.5445 3.70409 12.7773 4.09342 16.95C5.99856 18.3727 7.84487 19.2369 9.66003 19.8025C10.1082 19.1857 10.5079 18.53 10.8522 17.839C10.1964 17.5898 9.56832 17.2823 8.97482 16.9252C9.13227 16.8086 9.28628 16.6866 9.43508 16.5612C13.055 18.2543 16.9882 18.2543 20.5648 16.5612C20.7154 16.6866 20.8694 16.8086 21.0251 16.9252C20.4299 17.284 19.8 17.5915 19.1442 17.8407C19.4885 18.53 19.8865 19.1875 20.3364 19.8042C22.1533 19.2387 24.0014 18.3745 25.9065 16.95C26.3633 12.1128 25.1261 7.91885 22.6361 4.20036ZM11.3454 14.3838C10.2587 14.3838 9.36759 13.3693 9.36759 12.134C9.36759 10.8986 10.2397 9.88238 11.3454 9.88238C12.4511 9.88238 13.3423 10.8968 13.3232 12.134C13.325 13.3693 12.4511 14.3838 11.3454 14.3838ZM18.6545 14.3838C17.5678 14.3838 16.6767 13.3693 16.6767 12.134C16.6767 10.8986 17.5488 9.88238 18.6545 9.88238C19.7602 9.88238 20.6514 10.8968 20.6323 12.134C20.6323 13.3693 19.7602 14.3838 18.6545 14.3838Z" fill="white"/>
</g>
<defs>
<filter id="filter0_d_177_525" x="0" y="0.774094" width="30" height="25.0301" filterUnits="userSpaceOnUse" color-interpolation-filters="sRGB">
<feFlood flood-opacity="0" result="BackgroundImageFix"/>
<feColorMatrix in="SourceAlpha" type="matrix" values="0 0 0 0 0 0 0 0 0 0 0 0 0 0 0 0 0 0 127 0" result="hardAlpha"/>
<feOffset dy="2"/>
<feGaussianBlur stdDeviation="2"/>
<feComposite in2="hardAlpha" operator="out"/>
<feColorMatrix type="matrix" values="0 0 0 0 0 0 0 0 0 0 0 0 0 0 0 0 0 0 0.1 0"/>
<feBlend mode="normal" in2="BackgroundImageFix" result="effect1_dropShadow_177_525"/>
<feBlend mode="normal" in="SourceGraphic" in2="effect1_dropShadow_177_525" result="shape"/>
</filter>
</defs>
</svg>
