<svg width="18" height="18" viewBox="0 0 18 18" fill="none" xmlns="http://www.w3.org/2000/svg">
<path d="M2.7133 3.73814L1.40772 3.17862C0.829334 2.93074 0.197001 3.4955 0.276448 4.11973C0.726226 7.65371 -0.962204 10.0791 0.887423 13.2351C2.67951 16.2928 6.23552 17.6108 9.63885 17.1246C12.2433 16.7525 14.4622 13.6815 15.3593 11.9969C15.4371 11.8507 15.5283 11.7134 15.6374 11.5888L17.8181 9.09652C18.2307 8.62497 17.8959 7.88699 17.2693 7.88699H15.0794C14.5076 7.88699 14.0592 7.39602 14.111 6.82657L14.374 3.93351C14.4354 3.25814 13.804 2.72892 13.1497 2.90736L9.92174 3.78772C9.47455 3.90968 9.00345 3.69905 8.79616 3.28446L7.81124 1.31463C7.51442 0.720988 6.72325 0.5926 6.25394 1.06191L3.78392 3.53195C3.50276 3.81311 3.07876 3.89477 2.7133 3.73814Z" fill="#FFC700"/>
</svg>
