<svg width="36" height="36" viewBox="0 0 36 36" fill="none" xmlns="http://www.w3.org/2000/svg">
<g filter="url(#filter0_d_13_1775)">
<path d="M25.6361 10.2004C24.212 9.53406 22.6893 9.04982 21.0973 8.77409C20.9018 9.12757 20.6734 9.603 20.5159 9.98121C18.8236 9.72671 17.1469 9.72671 15.4857 9.98121C15.3283 9.603 15.0947 9.12757 14.8974 8.77409C13.3037 9.04982 11.7793 9.53584 10.3552 10.2039C7.48276 14.5445 6.70409 18.7773 7.09342 22.95C8.99856 24.3727 10.8449 25.2369 12.66 25.8025C13.1082 25.1857 13.5079 24.53 13.8522 23.839C13.1964 23.5898 12.5683 23.2823 11.9748 22.9252C12.1323 22.8086 12.2863 22.6866 12.4351 22.5612C16.055 24.2543 19.9882 24.2543 23.5648 22.5612C23.7154 22.6866 23.8694 22.8086 24.0251 22.9252C23.4299 23.284 22.8 23.5915 22.1442 23.8407C22.4885 24.53 22.8865 25.1875 23.3364 25.8042C25.1533 25.2387 27.0014 24.3745 28.9065 22.95C29.3633 18.1128 28.1261 13.9188 25.6361 10.2004ZM14.3454 20.3838C13.2587 20.3838 12.3676 19.3693 12.3676 18.134C12.3676 16.8986 13.2397 15.8824 14.3454 15.8824C15.4511 15.8824 16.3423 16.8968 16.3232 18.134C16.325 19.3693 15.4511 20.3838 14.3454 20.3838ZM21.6545 20.3838C20.5678 20.3838 19.6767 19.3693 19.6767 18.134C19.6767 16.8986 20.5488 15.8824 21.6545 15.8824C22.7602 15.8824 23.6514 16.8968 23.6323 18.134C23.6323 19.3693 22.7602 20.3838 21.6545 20.3838Z" fill="#2C2923"/>
</g>
<defs>
<filter id="filter0_d_13_1775" x="3" y="6.77409" width="30" height="25.0301" filterUnits="userSpaceOnUse" color-interpolation-filters="sRGB">
<feFlood flood-opacity="0" result="BackgroundImageFix"/>
<feColorMatrix in="SourceAlpha" type="matrix" values="0 0 0 0 0 0 0 0 0 0 0 0 0 0 0 0 0 0 127 0" result="hardAlpha"/>
<feOffset dy="2"/>
<feGaussianBlur stdDeviation="2"/>
<feComposite in2="hardAlpha" operator="out"/>
<feColorMatrix type="matrix" values="0 0 0 0 0 0 0 0 0 0 0 0 0 0 0 0 0 0 0.1 0"/>
<feBlend mode="normal" in2="BackgroundImageFix" result="effect1_dropShadow_13_1775"/>
<feBlend mode="normal" in="SourceGraphic" in2="effect1_dropShadow_13_1775" result="shape"/>
</filter>
</defs>
</svg>
