<svg width="82" height="14" viewBox="0 0 82 14" fill="none" xmlns="http://www.w3.org/2000/svg">
<path d="M81.7407 5.8091C81.3405 4.25498 80.54 2.10567 78.1886 1.25421C77.5298 1.03101 75.4703 0.774743 73.2522 1.32034C71.9348 1.64274 71.1927 2.52726 71.1927 2.52726L71.0509 1.775C70.9008 1.06407 70.167 1.00621 70.167 1.00621C70.167 1.00621 67.9073 0.981408 67.2569 1.04754C66.5982 1.11367 66.6316 1.56834 66.6316 1.56834C66.6316 1.56834 66.3397 1.06407 65.4892 1.08061C64.9389 1.08887 61.4701 1.36167 61.4701 1.36167C60.5278 1.12194 59.0186 1.10541 58.2681 1.16327C57.2509 1.23767 56.984 1.68407 56.8756 2.0726C56.7756 2.46113 56.6672 2.96539 56.6672 2.96539C56.6672 2.96539 55.7249 1.7998 54.0239 1.27901C52.3229 0.75821 49.838 0.989675 49.838 0.989675C48.0202 1.13847 47.4866 1.70887 47.2448 2.11393C47.1531 2.271 47.0363 2.57686 46.9279 3.00672C46.9112 2.74219 46.8445 2.4942 46.6944 2.2462C46.461 1.85767 46.1441 1.7006 45.6521 1.63447L43.309 1.29554C43.0089 1.27074 42.5086 1.24594 42.0249 1.46914C41.7081 1.13021 41.116 1.13021 41.116 1.13021L34.7705 1.15501C34.0868 1.15501 33.5698 1.33687 33.3697 1.89073C33.0778 1.899 28.2165 1.93207 28.2165 1.93207C28.0331 1.93207 27.7996 1.98993 27.6078 2.0974C27.3243 1.85767 26.8407 1.79153 26.6072 1.79153C26.5572 1.79153 24.3058 1.81633 24.3058 1.81633C23.8139 1.81633 23.497 2.00647 23.2719 2.36193C23.0884 2.03127 22.7966 1.80807 22.4714 1.80807L19.9115 1.7502C19.2611 1.7502 18.7358 2.271 18.5023 2.81659C18.2105 2.52726 17.6435 2.06433 17.2015 1.84113C16.9597 1.71714 15.6923 1.13021 14.1663 1.24594C13.9579 1.26247 11.4897 1.5022 10.0889 1.9982C9.76366 1.56834 9.38009 1.33687 9.03822 1.24594L9.02154 1.23767C8.25441 1.02274 6.56172 1.38647 5.50274 1.64274C5.4944 1.5766 5.36099 0.584611 5.14419 0.29528C4.91071 -0.0188504 4.54382 -0.0188504 3.97681 0.014216C3.4098 0.0472824 3.12629 0.253947 3.05125 0.485412C2.43421 0.204348 1.76713 0.187815 1.13342 0.278747C0.891602 0.311814 0.291238 0.402746 0.166162 0.584611C-0.0506368 0.915275 -0.0422984 1.31207 0.116131 2.11393C0.157823 2.3206 0.374622 2.95713 0.649789 3.27952C0.458006 3.40352 0.191177 3.80032 0.191177 4.19711C0.182838 6.2307 0.74985 10.2731 1.34188 11.7115C1.4336 11.9347 1.60037 12.1992 1.80883 12.472C2.40085 13.249 3.25137 13.8194 4.21862 13.9682C4.22696 13.9682 4.2353 13.9682 4.24364 13.9682C4.76896 14.0426 6.81187 13.9848 8.10432 13.8112C9.34674 13.6376 9.02988 12.505 9.02988 11.8851C9.02988 11.8851 9.69695 11.9099 10.1472 11.8851C10.6309 12.629 10.9644 13.2656 11.3396 13.5384C11.6982 13.8029 12.1651 13.9352 12.6654 13.96C14.6833 14.0757 19.8114 13.7533 19.8198 12.7365C20.3701 13.1664 21.1206 13.6624 22.5714 13.8442C24.5143 14.0922 27.2326 13.4557 28.5584 11.6949C28.6918 12.0091 28.942 13.4226 29.8926 13.7533C30.693 14.0261 31.6603 14.0013 32.9778 13.96C33.6198 13.9434 34.2285 13.4392 34.6705 12.8853C34.9456 13.4392 35.2375 13.96 36.0046 13.96C37.3888 13.96 38.5645 13.9021 39.39 13.869C40.2155 13.8442 40.6074 12.9762 40.6991 12.2736C40.6991 12.2736 41.0577 13.96 42.0083 13.96C42.8421 13.96 44.81 13.8525 44.81 13.8525C46.0941 13.8525 46.6778 12.596 46.8445 11.728C47.2531 12.72 47.8785 13.373 48.654 13.6376C48.6873 13.6458 48.7207 13.6624 48.7624 13.6706C49.3877 13.8608 50.405 13.9765 51.0721 13.9765C52.4896 13.9765 53.9072 13.6293 54.9911 13.2738C55.0078 13.2656 55.0245 13.2656 55.0412 13.2573C55.2997 13.1664 55.5498 13.0506 55.7833 12.9101C55.8583 12.9514 55.9417 12.9928 56.0334 13.0258C57.3426 13.5136 59.5689 13.6954 60.5695 13.7202C60.5862 13.7202 60.6029 13.7202 60.6112 13.7202C60.9198 13.7202 61.2033 13.6293 61.4284 13.4722C61.6035 13.5962 61.8203 13.6789 62.0454 13.7037C62.2956 13.7285 62.5541 13.745 62.8292 13.745C63.538 13.745 64.2635 13.6541 64.8638 13.4888C65.4142 13.34 65.781 12.9349 65.8394 12.4141C65.8561 12.257 65.8728 12.0835 65.8811 11.8851C66.1313 12.3314 66.3731 12.753 66.5315 12.9184C66.865 13.2573 67.2569 13.3317 67.3904 13.3565C67.6739 13.4061 67.9991 13.4309 68.3493 13.4309C69.4333 13.4309 70.6173 13.249 71.0759 13.0754C71.4261 12.9432 71.4845 12.596 71.5512 12.3149C72.36 13.2242 74.428 13.6376 75.4619 13.7202C77.7967 13.9104 80.6984 13.3234 81.549 10.8435C82.0326 9.42987 82.1743 7.47895 81.7407 5.8091ZM0.79988 1.07234C2.29245 0.601144 2.9762 0.997941 3.43481 1.49394C3.42648 1.32861 3.4098 0.997941 3.44315 0.840876C3.45149 0.824343 3.45983 0.799543 3.47651 0.791276C3.86841 0.493679 4.58551 0.609411 4.69391 0.700344C4.75228 0.749943 4.76896 0.931809 4.76896 1.05581C4.76896 1.14674 4.7773 1.60967 4.72727 2.08087C2.96786 2.47766 1.88387 2.91579 1.34188 3.17206C1.05837 2.84139 0.899941 2.42806 0.791542 2.0726C0.716496 1.81633 0.64145 1.12194 0.79988 1.07234ZM9.83037 8.69414C9.78034 9.04961 9.49683 9.32241 9.12994 9.35547L6.81187 9.5456C6.70347 9.55387 6.61175 9.6448 6.61175 9.75227L6.58673 10.5872C6.60341 10.9757 6.3199 11.3147 5.928 11.3725C5.48606 11.4387 4.72727 11.5296 3.82672 11.5296C3.45983 11.5296 3.07626 11.5131 2.67602 11.48C2.37584 11.4552 2.11735 11.2485 2.01729 10.9675C1.30852 8.96694 1.05837 6.23896 0.983325 5.19737C0.974987 5.06511 0.924956 4.46165 0.916618 4.21365C0.908279 3.92432 1.01668 3.70112 1.25015 3.60192C2.89282 2.90753 4.90237 2.43633 5.01911 2.41153C5.98637 2.1966 6.8619 1.9486 8.17936 1.7998C8.77139 1.73367 9.25502 2.11393 9.51351 2.52726C9.67194 2.77526 9.73865 3.07286 9.772 3.36219C9.81369 3.75072 9.83871 4.88324 9.83871 4.88324L8.66299 4.37071L7.92921 5.27177L6.88691 4.89151L6.34492 5.59417L5.46105 5.29657L5.74455 7.06562L6.72014 6.14803L7.77912 6.74323L8.7297 5.7843L10.0055 6.4787C9.98046 7.57815 9.83037 8.69414 9.83037 8.69414ZM18.6107 10.4384C18.519 10.6781 18.3105 10.9344 17.977 11.0088L16.1259 11.4221C16.0675 11.4387 16.0008 11.4469 15.9424 11.4469C15.6506 11.4469 15.3754 11.2733 15.2503 11.0088L14.3581 9.09094C14.3331 9.04134 14.3081 9.02481 14.2414 9.02481C14.2164 9.02481 14.108 9.03307 14.108 9.03307C13.9412 9.04961 13.9495 9.05787 13.9579 9.16534L13.9912 10.86C13.9996 11.2651 13.6243 11.604 13.2158 11.6288C13.2158 11.6288 11.5397 11.5627 11.5231 11.5627C11.2145 11.5627 11.0144 11.3395 11.0144 11.3395C10.8893 11.1824 10.8226 11.0584 10.7976 10.6037C10.7393 9.77707 10.4724 4.55258 10.5308 3.45312C10.5475 3.13072 10.5475 2.81659 10.9227 2.65126C11.7899 2.26273 13.099 2.10567 14.0746 2.023C14.208 2.01473 14.3414 2.00647 14.4749 2.00647C14.8668 2.00647 15.3421 2.03953 15.7173 2.10567C16.8513 2.32886 17.6434 2.85793 18.1021 3.57712C18.4189 4.06485 18.5857 4.73444 18.619 5.24697C18.6441 5.57764 18.6107 5.84217 18.569 6.12323C18.519 6.41256 18.4022 6.73496 18.2688 6.98296C18.1521 7.20616 17.952 7.40456 17.7602 7.60295C17.7602 7.60295 17.5517 7.78482 17.4267 7.88402C17.3266 7.96668 17.3933 8.16508 17.4767 8.27255L18.5273 9.75227C18.6607 9.9424 18.6941 10.2069 18.6107 10.4384ZM27.2159 6.54483C27.1826 6.94163 27.0825 7.46242 26.9658 7.85922C26.849 8.26428 26.699 8.66108 26.5322 9.03307C26.4488 9.21494 26.3487 9.38854 26.2403 9.55387C26.1486 9.6944 26.0402 9.85974 25.9402 9.98373C25.2064 11.0005 24.089 11.5544 22.8216 11.5544C22.7132 11.5544 22.6048 11.5544 22.4964 11.5461C21.2707 11.4552 20.245 10.8517 19.7114 9.80187C19.5279 9.43814 19.3862 9.14881 19.2861 8.74374C19.1861 8.34695 19.111 7.94188 19.0777 7.53682C19.036 7.13176 19.0193 6.73496 19.0193 6.36296C19.0193 5.9827 19.0276 5.02377 19.0943 4.37898L19.1027 4.28805C19.1527 3.86645 19.2194 3.39525 19.2861 2.99846C19.3528 2.61819 19.6864 2.3454 20.0699 2.3454C20.0783 2.3454 20.0866 2.3454 20.1033 2.3454L22.0211 2.4198C22.2546 2.42806 22.463 2.53553 22.6131 2.70913C22.7549 2.88273 22.8133 3.08939 22.7799 3.31259C22.5714 4.52778 22.4214 5.69337 22.4547 6.92509C22.4714 7.47069 22.5798 8.01628 22.7799 8.43788C22.98 8.85948 23.3386 8.15682 23.4053 7.95842C23.6304 7.28882 23.6721 6.53656 23.7221 5.8339C23.7722 5.09817 23.7722 4.36245 23.7472 3.61845V3.55232C23.7388 3.42832 23.7388 3.37046 23.7305 3.22992C23.7221 3.01499 23.8055 2.83313 23.9556 2.67606C24.1057 2.519 24.3142 2.42806 24.531 2.42806H26.4655C26.8824 2.42806 27.2326 2.75046 27.266 3.16379C27.291 3.55232 27.316 4.05658 27.316 4.48645C27.316 4.79231 27.2743 5.82563 27.2159 6.54483ZM41.5997 4.28805C41.5496 5.04857 40.9076 5.05684 40.9076 5.05684L39.7402 5.09817C39.5901 5.10644 39.5401 5.15604 39.5234 5.30484C39.5234 5.30484 39.2733 8.31388 38.9731 10.6947C38.8897 11.3808 38.4895 11.4221 38.1309 11.4387L36.605 11.5461C36.4048 11.5544 36.2214 11.4883 36.0713 11.3477C35.9296 11.2155 35.8712 11.1245 35.8462 10.8269C35.7211 8.87601 35.9796 5.59417 35.9796 5.59417C35.9796 5.5115 35.9796 5.42057 35.9212 5.3627C35.8795 5.31311 35.7044 5.28831 35.596 5.29657L35.5126 5.30484C35.5293 5.20564 35.5126 3.95738 35.5126 3.95738C35.5043 3.58539 35.4793 2.85793 34.9706 2.70086H34.954C35.004 2.72566 35.054 2.75046 35.079 2.78353C35.2125 2.92406 35.2125 3.10592 35.2041 3.29606L35.1624 5.08991C35.1541 5.4619 34.8789 5.7843 34.437 5.7843L33.4947 5.80083C33.3447 5.8091 33.2946 5.84217 33.2779 5.99097L32.6609 10.8848C32.6276 11.2403 32.2523 11.5213 31.8938 11.5379L30.1927 11.6371C30.2011 11.6371 30.2011 11.6371 30.2094 11.6371C30.2178 11.6371 30.151 11.6371 30.1594 11.6371H30.1927C30.0093 11.6371 29.8425 11.5709 29.7091 11.4387C29.5674 11.3064 29.5007 11.1245 29.484 10.9261C29.4339 10.2648 29.5757 7.28882 29.6507 6.33816C29.6591 6.16457 29.6424 6.09843 29.584 6.04057C29.5257 5.9827 29.4089 5.9827 29.3255 5.99097L28.6084 6.02403C28.4083 6.0323 28.0831 5.92483 27.9664 5.76777C27.7579 5.49497 27.7746 5.25524 27.7746 5.14777C27.7746 4.73444 27.8246 3.52752 27.8246 3.51925C27.8663 2.60993 28.2332 2.56033 29.0837 2.59339L34.0034 2.58513C34.0201 2.20486 34.3286 1.9486 34.7205 1.9486C34.7205 1.9486 40.8492 1.94033 40.8576 1.94033C41.1911 1.94033 41.6164 2.15527 41.6164 2.59339L41.5997 4.28805ZM45.452 10.7277C45.4103 11.1493 45.0601 11.48 44.6432 11.4965L42.8921 11.5957C42.8755 11.5957 42.4919 11.5957 42.2584 11.3643C42.0916 11.1989 41.9916 10.984 41.9916 10.7525L42.125 2.80006C42.125 2.5686 42.1417 2.3454 42.3168 2.18833C42.4835 2.023 42.6837 1.9486 42.9505 1.96513L45.3353 2.23793C45.5688 2.2462 45.8773 2.3702 46.0274 2.55206C46.1858 2.72566 46.2192 2.97366 46.2025 3.20512L45.452 10.7277ZM55.6415 10.4632C54.8661 11.0088 51.1638 11.728 49.888 11.3808C48.8708 11.0997 48.4705 10.4301 48.237 9.5952C48.3705 9.23974 48.5706 9.11574 48.9375 9.18187C49.7046 9.30587 50.0048 9.00001 50.1299 8.76028C50.1549 8.71068 50.1048 8.65281 50.0465 8.67761C49.8297 8.76854 49.4961 8.83468 49.1626 8.67761C48.679 8.44615 48.2871 8.51228 48.0619 8.76854C47.9869 8.27255 47.9202 7.80962 47.8702 7.38802C48.112 7.28882 48.5205 7.31362 49.1709 7.39629C49.813 7.47895 50.1632 7.14829 50.3133 6.91683C50.33 6.88376 50.2966 6.85069 50.2716 6.86723C49.9881 6.99949 49.3544 7.00776 48.8457 6.73496C48.4705 6.53656 48.087 6.51176 47.7951 6.61096C47.7618 6.22243 47.7367 5.86697 47.7201 5.54457C48.0036 5.55284 48.4372 5.6603 49.0125 5.5859C50.2383 5.44537 50.6468 4.98244 50.9387 4.57738C50.972 4.53605 50.9387 4.46165 50.8887 4.48645C50.1549 4.89151 49.346 5.15604 48.3871 4.72618C48.137 4.61871 47.9035 4.58565 47.695 4.61044C47.7117 3.03979 47.9786 2.4942 47.9786 2.4942C48.1453 2.13873 48.7957 1.899 49.2877 1.8246C49.2877 1.8246 51.9143 1.46087 53.657 1.899C54.766 2.18006 55.2913 2.65953 55.4998 2.81659C55.7083 2.97366 56.8673 3.90778 57.1675 5.9083C57.6428 9.04134 56.4254 9.90107 55.6415 10.4632ZM60.9198 10.6781C60.8864 10.9013 60.7196 11.1493 60.3861 11.1411C59.8274 11.1328 58.9102 11.0749 58.5516 11.0419C57.8512 10.9675 57.4093 10.9096 57.1341 10.8021C57.1841 10.6451 57.2258 10.488 57.2675 10.3309C57.4426 9.6448 57.5677 9.02481 57.6344 8.27255C57.7011 7.47895 57.7261 6.4787 57.3259 5.15604C57.3092 5.08991 57.2842 5.02378 57.2592 4.95764C57.4343 3.81685 57.5927 2.88273 57.6428 2.62646C57.6844 2.40326 57.7178 2.15527 57.7929 2.03127C57.7929 2.03127 57.8095 2.00647 57.8179 1.98993C57.9013 1.88247 58.0764 1.79153 58.2348 1.78327C59.0936 1.7254 60.7613 1.81633 61.3283 1.95687C61.6785 2.03953 61.8036 2.22966 61.8536 2.38673C62.0288 2.94059 61.1449 9.19841 60.9198 10.6781ZM70.9258 9.90933C70.9175 10.2235 70.7507 10.4219 70.634 10.5128C70.2004 10.86 68.5494 10.984 67.9574 10.9592C67.7155 10.9509 67.4154 10.9179 67.2569 10.8765C66.9234 10.7856 66.765 10.6368 66.7066 10.5624C66.4564 10.2483 66.2146 9.70267 66.0062 9.34721C65.8061 8.99174 65.4892 8.39655 65.3057 8.02455C65.164 7.74349 65.0473 7.50375 64.9138 7.21442C64.8722 7.12349 64.7888 7.14829 64.7888 7.24749C64.7888 7.29709 64.7888 7.48722 64.7888 7.53682C64.7888 8.39655 64.7971 9.6944 64.7804 9.992C64.7638 10.4384 64.7471 10.7773 64.572 10.9261C64.4219 11.0584 64.0383 11.2237 63.3462 11.2237C62.8376 11.2237 62.3373 11.1741 62.0371 11.0749C61.9704 11.0501 61.9037 11.0171 61.8536 10.9757C61.9204 9.95893 61.9704 8.96694 61.9871 8.71894C62.0288 8.08242 62.3373 4.87498 62.3623 3.53579C62.3706 3.13899 62.2872 2.60166 62.1872 2.31233C62.1538 2.20486 62.1038 2.10567 62.0621 2.023L65.3725 1.83287C65.8728 1.7998 66.0979 2.18006 66.1813 2.31233C66.6649 3.08112 67.407 4.27978 67.407 4.27978C67.407 4.27978 67.282 3.28779 67.2236 2.32886C67.1986 1.85767 67.6071 1.71714 67.8323 1.7006C68.5244 1.65927 69.4416 1.70887 69.8835 1.71714C70.2087 1.7254 70.4505 2.00647 70.4756 2.1966C70.6423 3.32912 70.9925 8.19815 70.9258 9.90933ZM80.4399 8.60321C80.3983 8.75201 80.3482 8.90081 80.2899 9.04961C80.048 9.65307 79.6311 10.1573 79.1058 10.5459C78.6389 10.8848 78.1052 11.1328 77.5382 11.2651C76.9462 11.4056 76.3208 11.4056 75.7121 11.3808C74.9449 11.3477 74.1861 11.232 73.4524 11.0253C72.9521 10.8848 72.4518 10.7277 72.0265 10.4384C71.9014 10.3557 71.7847 10.2648 71.6679 10.1573C71.6763 9.24801 71.6596 8.05762 71.5429 6.68536C71.4595 5.7347 71.3177 4.72618 71.1343 3.59365C71.1593 3.56059 71.176 3.52752 71.201 3.48619C71.3928 3.19686 71.7263 2.80833 72.1099 2.52726C72.6686 2.11393 73.2939 1.70887 74.6948 1.61794C75.8538 1.54354 77.0546 1.46914 78.1719 1.98167C79.1642 2.42806 79.8563 3.32086 80.2398 4.30458C80.7401 5.6355 80.8152 7.23922 80.4399 8.60321Z" fill="#949B9C"/>
</svg>
