<?xml version="1.0" encoding="utf-8"?>
<!-- Generator: Adobe Illustrator 27.2.0, SVG Export Plug-In . SVG Version: 6.00 Build 0)  -->
<svg version="1.1" id="레이어_1" xmlns="http://www.w3.org/2000/svg" xmlns:xlink="http://www.w3.org/1999/xlink" x="0px"
	 y="0px" viewBox="0 0 1000 186" style="enable-background:new 0 0 1000 186;" xml:space="preserve">
<style type="text/css">
	.st0{fill:#949B9C;}
</style>
<g>
	<g>
		<path class="st0" d="M205.3,61.9c-0.1,0-0.4-0.2-1-0.5l0,0c0,0-1-0.4-2.4-0.9c-0.1,0-0.2,0-0.2-0.1c-1-0.4-2.1-0.7-3.7-1.1
			c-1.5-0.4-3.2-0.7-5.1-1c0.1-0.3,0.1-0.5,0.1-0.8c0-1.4-1-2.5-2.4-2.7c-0.2,0-0.4,0-0.7-0.1l0,0c-15.6-2.4-27.2,5.6-27.2,5.6
			c-0.1,0.1-0.1,0.1-0.2,0.2c-0.1,0-0.2,0.1-0.2,0.1c-0.1,0.1-0.2,0.1-0.2,0.2c-1,0.9-1.9,1.9-2.9,3c-0.2,0.3-0.6,0.5-0.8,0.8
			c-1.2,1.5-2.3,3.2-3.4,5.3c-2.5,5.1-2.1,11.3,1.4,16c4.6,6.1,13.1,9.3,20.8,8c2.1-0.4,4-0.8,5.6-1.2c4-1,6.6-2,6.7-2
			c1.1-0.4,1.9-1.6,1.8-2.8c0-0.6-0.3-1.1-0.6-1.6c7-2.4,10.3-5.5,10.5-5.7c0.6-0.6,0.9-1.4,0.8-2.3c-0.1-0.8-0.5-1.6-1.2-2.1
			l-1.5-1c4.2-4.2,6.9-9.5,7.1-9.8C207.2,64.3,206.7,62.6,205.3,61.9z M177.1,73.3c0,0,2.1,2.6,4.5,3c-0.6,3-13.2,10.5-21.2,3.3
			c-1.6-1.4-2-3.8-1.8-5.2c0.5-3.3,2.5-8.1,8.4-10.3c8.1-3,14,1.5,17.4,1.5C184.4,65.7,180.2,72,177.1,73.3z"/>
		<path class="st0" d="M45.8,69.6c-1,0-2.1,0.4-3,1.1c-1.7,1.3-2.4,3.3-1.9,5.7c0.4,2,1.7,3.7,3.5,4.5c0.8,0.4,1.6,0.5,2.4,0.5
			c0.9,0,1.7-0.3,2.5-0.7c1.4-0.8,2.3-2.2,2.6-3.7c0.3-1.8-0.4-3.8-1.9-5.4C49.8,71.1,48.2,69.5,45.8,69.6L45.8,69.6z"/>
	</g>
	<g>
		<path class="st0" d="M848.8,113.5"/>
		<g>
			<path class="st0" d="M893.1,80.3l-10.4-4.1c-1.8-0.7-3.7,0.6-3.7,2.5c0,4.3,1.3,12.1,8.3,23c0.4,0.5,1.9,2.8,2.3,3.3
				c3.8,5.3,8.3,8.4,13,10c0.5,0.2,1,0.3,1.5,0.5c4.1,1.1,8.2,1.2,12.1,0.8l3.2-0.5c6.2-1.3,11.4-3.8,13.7-5.6
				c5.8-4.4,18.5-22.9,7.1-40.5c-4.4-6.8-8.7-11.4-12.5-14.6c-4.1-3.4-7.8-5.1-10.9-6c-1.9-0.6-3.7,0.9-3.5,2.9l1.3,13.5
				c0.2,2.3-2.3,3.8-4.2,2.5l-13.1-8.6c-2.1-1.4-4.7,0.5-4.1,2.9l3.7,15C897.3,79.3,895.1,81.1,893.1,80.3z"/>
		</g>
		<path class="st0" d="M843.2,97.2c-0.7-0.7-1.8-0.9-3-0.5c-3.5,1.1-2.1,8.3-0.2,10.3c0.2,0.2,0.4,0.4,0.6,0.4
			c0.3,0.1,0.6,0,0.9-0.1c2.8-1.2,3.2-5.7,2.6-8.2C844,98.3,843.7,97.7,843.2,97.2z"/>
		<path class="st0" d="M846.6,110.4c-2-1.1-3.5,0.9-4.1,2.5c-0.7,2-1.7,9.1,2.5,6.4c1.7-1,3.2-2.8,3.5-4.8
			C848.8,112.9,847.8,111.1,846.6,110.4z"/>
		<path class="st0" d="M836.9,116.8c-0.2-0.2-0.4-0.3-0.7-0.3c-1.7-0.3-3.1,1-3.6,2.5c-1.1,3.5-0.9,7,1.1,6.8
			C837.6,125.6,840.3,119.4,836.9,116.8z"/>
	</g>
	<g>
		<path class="st0" d="M624.2,69.2c-0.7,7.2,0.2,16.7,1.3,25c0,0,0,0,0,0.1c0.1,0.4,0.1,0.9,0.2,1.3c0,0.2,0,0.3,0.1,0.5
			c0.1,0.5,0.2,1,0.2,1.6c0.1,0.4,0.1,0.7,0.2,1.1c0,0.3,0.1,0.5,0.1,0.8c0.1,0.3,0.1,0.7,0.2,1c0,0.2,0.1,0.4,0.1,0.6
			c0.1,0.5,0.2,1.1,0.2,1.6c0.3,2.1,1.9,3.9,4,4c0.2,0,0.3,0,0.6,0c0.1,0,0.2,0,0.3,0s0.2,0,0.3,0s0.3,0,0.4,0c0.1,0,0.2,0,0.3,0
			s0.2,0,0.4,0s0.3,0,0.5,0c0.1,0,0.3,0,0.5,0c0.1,0,0.3,0,0.4,0c0.1,0,0.2,0,0.4,0s0.5,0,0.7,0s0.3,0,0.5,0s0.3,0,0.5,0
			c0.1,0,0.3,0,0.4,0c0.2,0,0.4,0,0.5,0c0.3,0,0.5,0,0.8,0c0.2,0,0.4,0,0.5,0c0.2,0,0.3,0,0.5,0s0.4,0,0.5,0c0.3,0,0.6,0,0.9-0.1
			c2.1-0.1,4.4-0.4,6.6-0.9c11.3-4.3,7.6-19,6.6-23.2C652.9,78.2,648.9,68.5,624.2,69.2z"/>
		<path class="st0" d="M927.6,55c-4.1-3.4-7.8-5.1-10.9-6c-1.9-0.6-3.7,0.9-3.5,2.9l1.3,13.5c0.2,2.3-2.3,3.8-4.2,2.5l-13.1-8.6
			c-2.1-1.4-4.7,0.5-4.1,2.9l3.7,15c0.5,2.1-1.6,4-3.6,3.2l-10.4-4.1c-1.8-0.7-3.7,0.6-3.7,2.5c0,4.3,1.3,12.1,8.3,23
			c0.4,0.5,1.9,2.8,2.3,3.3c3.8,5.3,8.3,8.4,13,10c0.5,0.2,1,0.3,1.5,0.5c4.1,1.1,8.2,1.2,12.1,0.8l3.2-0.5
			c6.2-1.3,11.4-3.8,13.7-5.6c5.8-4.4,18.5-22.9,7.1-40.5C935.7,62.8,931.5,58.2,927.6,55z"/>
		<path class="st0" d="M988.6,78.6c-4.8-18.8-14.4-44.8-42.6-55.1c-7.9-2.7-32.6-5.8-59.2,0.8c-15.8,3.9-24.7,14.6-24.7,14.6
			l-1.7-9.1c-1.8-8.6-10.6-9.3-10.6-9.3s-27.1-0.3-34.9,0.5c-7.9,0.8-7.5,6.3-7.5,6.3s-3.5-6.1-13.7-5.9c-6.6,0.1-48.2,3.4-48.2,3.4
			c-11.3-2.9-29.4-3.1-38.4-2.4c-12.2,0.9-15.4,6.3-16.7,11c-1.2,4.7-2.5,10.8-2.5,10.8s-11.3-14.1-31.7-20.4S606,20.3,606,20.3
			c-21.8,1.8-28.2,8.7-31.1,13.6c-1.1,1.9-2.5,5.6-3.8,10.8c-0.2-3.2-1-6.2-2.8-9.2c-2.8-4.7-6.6-6.6-12.5-7.4L527.7,24
			c-3.6-0.3-9.6-0.6-15.4,2.1c-3.8-4.1-10.9-4.1-10.9-4.1l-76.1,0.3c-8.2,0-14.4,2.2-16.8,8.9c-3.5,0.1-61.8,0.5-61.8,0.5
			c-2.2,0-5,0.7-7.3,2c-3.4-2.9-9.2-3.7-12-3.7c-0.6,0-27.6,0.3-27.6,0.3c-5.9,0-9.7,2.3-12.4,6.6c-2.2-4-5.7-6.7-9.6-6.7l-30.7-0.7
			c-7.8,0-14.1,6.3-16.9,12.9c-3.5-3.5-10.3-9.1-15.6-11.8c-2.9-1.5-18.1-8.6-36.4-7.2c-2.5,0.2-32.1,3.1-48.9,9.1
			c-3.9-5.2-8.5-8-12.6-9.1l-0.2-0.1c-9.2-2.6-29.5,1.8-42.2,4.9c-0.1-0.8-1.7-12.8-4.3-16.3c-2.8-3.8-7.2-3.8-14-3.4
			s-10.2,2.9-11.1,5.7c-7.4-3.4-15.4-3.6-23-2.5c-2.9,0.4-10.1,1.5-11.6,3.7c-2.6,4-2.5,8.8-0.6,18.5c0.5,2.5,3.1,10.2,6.4,14.1
			c-2.3,1.5-5.5,6.3-5.5,11.1c-0.1,24.6,6.7,73.5,13.8,90.9c1.1,2.7,3.1,5.9,5.6,9.2c7.1,9.4,17.3,16.3,28.9,18.1c0.1,0,0.2,0,0.3,0
			c6.3,0.9,30.8,0.2,46.3-1.9c14.9-2.1,11.1-15.8,11.1-23.3c0,0,8,0.3,13.4,0c5.8,9,9.8,16.7,14.3,20c4.3,3.2,9.9,4.8,15.9,5.1
			c24.2,1.4,85.7-2.5,85.8-14.8c6.6,5.2,15.6,11.2,33,13.4c23.3,3,55.9-4.7,71.8-26c1.6,3.8,4.6,20.9,16,24.9c9.6,3.3,21.2,3,37,2.5
			c7.7-0.2,15-6.3,20.3-13c3.3,6.7,6.8,13,16,13c16.6,0,30.7-0.7,40.6-1.1c9.9-0.3,14.6-10.8,15.7-19.3c0,0,4.3,20.4,15.7,20.4
			c10,0,33.6-1.3,33.6-1.3c15.4,0,22.4-15.2,24.4-25.7c4.9,12,12.4,19.9,21.7,23.1c0.4,0.1,0.8,0.3,1.3,0.4
			c7.5,2.3,19.7,3.7,27.7,3.7c17,0,34-4.2,47-8.5c0.2-0.1,0.4-0.1,0.6-0.2l0,0c3.1-1.1,6.1-2.5,8.9-4.2c0.9,0.5,1.9,1,3,1.4
			c15.7,5.9,42.4,8.1,54.4,8.4c0.2,0,0.4,0,0.5,0c3.7,0,7.1-1.1,9.8-3c2.1,1.5,4.7,2.5,7.4,2.8c3,0.3,6.1,0.5,9.4,0.5
			c8.5,0,17.2-1.1,24.4-3.1c6.6-1.8,11-6.7,11.7-13c0.2-1.9,0.4-4,0.5-6.4c3,5.4,5.9,10.5,7.8,12.5c4,4.1,8.7,5,10.3,5.3
			c3.4,0.6,7.3,0.9,11.5,0.9c13,0,27.2-2.2,32.7-4.3c4.2-1.6,4.9-5.8,5.7-9.2c9.7,11,34.5,16,46.9,17c28,2.3,62.8-4.8,73-34.8
			C992.1,122.4,993.8,98.8,988.6,78.6z M17.9,21.3c17.9-5.7,26.1-0.9,31.6,5.1c-0.1-2-0.3-6,0.1-7.9c0.1-0.2,0.2-0.5,0.4-0.6
			c4.7-3.6,13.3-2.2,14.6-1.1c0.7,0.6,0.9,2.8,0.9,4.3c0,1.1,0.1,6.7-0.5,12.4c-21.1,4.8-34.1,10.1-40.6,13.2c-3.4-4-5.3-9-6.6-13.3
			C16.9,30.3,16,21.9,17.9,21.3z M126.2,113.5c-0.6,4.3-4,7.6-8.4,8L90,123.8c-1.3,0.1-2.4,1.2-2.4,2.5l-0.3,10.1
			c0.2,4.7-3.2,8.8-7.9,9.5c-5.3,0.8-14.4,1.9-25.2,1.9c-4.4,0-9-0.2-13.8-0.6c-3.6-0.3-6.7-2.8-7.9-6.2C24,116.8,21,83.8,20.1,71.2
			c-0.1-1.6-0.7-8.9-0.8-11.9c-0.1-3.5,1.2-6.2,4-7.4C43,43.5,67.1,37.8,68.5,37.5c11.6-2.6,22.1-5.6,37.9-7.4
			c7.1-0.8,12.9,3.8,16,8.8c1.9,3,2.7,6.6,3.1,10.1c0.5,4.7,0.8,18.4,0.8,18.4l-14.1-6.2l-8.8,10.9l-12.5-4.6L84.4,76l-10.6-3.6
			l3.4,21.4l11.7-11.1l12.7,7.2L113,78.3l15.3,8.4C128,100,126.2,113.5,126.2,113.5z M231.5,134.6c-1.1,2.9-3.6,6-7.6,6.9l-22.2,5
			c-0.7,0.2-1.5,0.3-2.2,0.3c-3.5,0-6.8-2.1-8.3-5.3l-10.7-23.2c-0.3-0.6-0.6-0.8-1.4-0.8c-0.3,0-1.6,0.1-1.6,0.1
			c-2,0.2-1.9,0.3-1.8,1.6l0.4,20.5c0.1,4.9-4.4,9-9.3,9.3c0,0-20.1-0.8-20.3-0.8c-3.7,0-6.1-2.7-6.1-2.7c-1.5-1.9-2.3-3.4-2.6-8.9
			c-0.7-10-3.9-73.2-3.2-86.5c0.2-3.9,0.2-7.7,4.7-9.7c10.4-4.7,26.1-6.6,37.8-7.6c1.6-0.1,3.2-0.2,4.8-0.2c4.7,0,10.4,0.4,14.9,1.2
			c13.6,2.7,23.1,9.1,28.6,17.8c3.8,5.9,5.8,14,6.2,20.2c0.3,4-0.1,7.2-0.6,10.6c-0.6,3.5-2,7.4-3.6,10.4c-1.4,2.7-3.8,5.1-6.1,7.5
			c0,0-2.5,2.2-4,3.4c-1.2,1-0.4,3.4,0.6,4.7l12.6,17.9C232.1,128.6,232.5,131.8,231.5,134.6z M334.7,87.5c-0.4,4.8-1.6,11.1-3,15.9
			c-1.4,4.9-3.2,9.7-5.2,14.2c-1,2.2-2.2,4.3-3.5,6.3c-1.1,1.7-2.4,3.7-3.6,5.2c-8.8,12.3-22.2,19-37.4,19c-1.3,0-2.6,0-3.9-0.1
			c-14.7-1.1-27-8.4-33.4-21.1c-2.2-4.4-3.9-7.9-5.1-12.8c-1.2-4.8-2.1-9.7-2.5-14.6c-0.5-4.9-0.7-9.7-0.7-14.2
			c0-4.6,0.1-16.2,0.9-24l0.1-1.1c0.6-5.1,1.4-10.8,2.2-15.6c0.8-4.6,4.8-7.9,9.4-7.9c0.1,0,0.2,0,0.4,0l23,0.9
			c2.8,0.1,5.3,1.4,7.1,3.5c1.7,2.1,2.4,4.6,2,7.3c-2.5,14.7-4.3,28.8-3.9,43.7c0.2,6.6,1.5,13.2,3.9,18.3c2.4,5.1,6.7-3.4,7.5-5.8
			c2.7-8.1,3.2-17.2,3.8-25.7c0.6-8.9,0.6-17.8,0.3-26.8v-0.8c-0.1-1.5-0.1-2.2-0.2-3.9c-0.1-2.6,0.9-4.8,2.7-6.7
			c1.8-1.9,4.3-3,6.9-3h23.2c5,0,9.2,3.9,9.6,8.9c0.3,4.7,0.6,10.8,0.6,16C335.9,66.3,335.4,78.8,334.7,87.5z M507.2,60.2
			c-0.6,9.2-8.3,9.3-8.3,9.3l-14,0.5c-1.8,0.1-2.4,0.7-2.6,2.5c0,0-3,36.4-6.6,65.2c-1,8.3-5.8,8.8-10.1,9l-18.3,1.3
			c-2.4,0.1-4.6-0.7-6.4-2.4c-1.7-1.6-2.4-2.7-2.7-6.3c-1.5-23.6,1.6-63.3,1.6-63.3c0-1,0-2.1-0.7-2.8c-0.5-0.6-2.6-0.9-3.9-0.8
			l-1,0.1c0.2-1.2,0-16.3,0-16.3c-0.1-4.5-0.4-13.3-6.5-15.2h-0.2c0.6,0.3,1.2,0.6,1.5,1c1.6,1.7,1.6,3.9,1.5,6.2L430,69.9
			c-0.1,4.5-3.4,8.4-8.7,8.4L410,78.5c-1.8,0.1-2.4,0.5-2.6,2.3L400,140c-0.4,4.3-4.9,7.7-9.2,7.9l-20.4,1.2c0.1,0,0.1,0,0.2,0
			s-0.7,0-0.6,0h0.4c-2.2,0-4.2-0.8-5.8-2.4c-1.7-1.6-2.5-3.8-2.7-6.2c-0.6-8,1.1-44,2-55.5c0.1-2.1-0.1-2.9-0.8-3.6
			c-0.7-0.7-2.1-0.7-3.1-0.6l-8.6,0.4c-2.4,0.1-6.3-1.2-7.7-3.1c-2.5-3.3-2.3-6.2-2.3-7.5c0-5,0.6-19.6,0.6-19.7
			c0.5-11,4.9-11.6,15.1-11.2l59-0.1c0.2-4.6,3.9-7.7,8.6-7.7c0,0,73.5-0.1,73.6-0.1c4,0,9.1,2.6,9.1,7.9L507.2,60.2z M553.4,138.1
			c-0.5,5.1-4.7,9.1-9.7,9.3l-21,1.2c-0.2,0-4.8,0-7.6-2.8c-2-2-3.2-4.6-3.2-7.4l1.6-96.2c0-2.8,0.2-5.5,2.3-7.4
			c2-2,4.4-2.9,7.6-2.7l28.6,3.3c2.8,0.1,6.5,1.6,8.3,3.8c1.9,2.1,2.3,5.1,2.1,7.9L553.4,138.1z M675.6,134.9
			c-9.3,6.6-53.7,15.3-69,11.1c-12.2-3.4-17-11.5-19.8-21.6c1.6-4.3,4-5.8,8.4-5c9.2,1.5,12.8-2.2,14.3-5.1c0.3-0.6-0.3-1.3-1-1
			c-2.6,1.1-6.6,1.9-10.6,0c-5.8-2.8-10.5-2-13.2,1.1c-0.9-6-1.7-11.6-2.3-16.7c2.9-1.2,7.8-0.9,15.6,0.1c7.7,1,11.9-3,13.7-5.8
			c0.2-0.4-0.2-0.8-0.5-0.6c-3.4,1.6-11,1.7-17.1-1.6c-4.5-2.4-9.1-2.7-12.6-1.5c-0.4-4.7-0.7-9-0.9-12.9c3.4,0.1,8.6,1.4,15.5,0.5
			c14.7-1.7,19.6-7.3,23.1-12.2c0.4-0.5,0-1.4-0.6-1.1c-8.8,4.9-18.5,8.1-30,2.9c-3-1.3-5.8-1.7-8.3-1.4c0.2-19,3.4-25.6,3.4-25.6
			c2-4.3,9.8-7.2,15.7-8.1c0,0,31.5-4.4,52.4,0.9c13.3,3.4,19.6,9.2,22.1,11.1s16.4,13.2,20,37.4C699.6,117.7,685,128.1,675.6,134.9
			z M738.9,137.5c-0.4,2.7-2.4,5.7-6.4,5.6c-6.7-0.1-17.7-0.8-22-1.2c-8.4-0.9-13.7-1.6-17-2.9c0.6-1.9,1.1-3.8,1.6-5.7
			c2.1-8.3,3.6-15.8,4.4-24.9c0.8-9.6,1.1-21.7-3.7-37.7c-0.2-0.8-0.5-1.6-0.8-2.4c2.1-13.8,4-25.1,4.6-28.2
			c0.5-2.7,0.9-5.7,1.8-7.2c0,0,0.2-0.3,0.3-0.5c1-1.3,3.1-2.4,5-2.5c10.3-0.7,30.3,0.4,37.1,2.1c4.2,1,5.7,3.3,6.3,5.2l0,0l0,0l0,0
			l0,0C752.2,43.9,741.6,119.6,738.9,137.5z M858.9,128.2c-0.1,3.8-2.1,6.2-3.5,7.3c-5.2,4.2-25,5.7-32.1,5.4
			c-2.9-0.1-6.5-0.5-8.4-1c-4-1.1-5.9-2.9-6.6-3.8c-3-3.8-5.9-10.4-8.4-14.7c-2.4-4.3-6.2-11.5-8.4-16c-1.7-3.4-3.1-6.3-4.7-9.8
			c-0.5-1.1-1.5-0.8-1.5,0.4c0,0.6,0,2.9,0,3.5c0,10.4,0.1,26.1-0.1,29.7c-0.2,5.4-0.4,9.5-2.5,11.3c-1.8,1.6-6.4,3.6-14.7,3.6
			c-6.1,0-12.1-0.6-15.7-1.8c-0.8-0.3-1.6-0.7-2.2-1.2c0.8-12.3,1.4-24.3,1.6-27.3c0.5-7.7,4.2-46.5,4.5-62.7
			c0.1-4.8-0.9-11.3-2.1-14.8c-0.4-1.3-1-2.5-1.5-3.5l39.7-2.3c6-0.4,8.7,4.2,9.7,5.8c5.8,9.3,14.7,23.8,14.7,23.8s-1.5-12-2.2-23.6
			c-0.3-5.7,4.6-7.4,7.3-7.6c8.3-0.5,19.3,0.1,24.6,0.2c3.9,0.1,6.8,3.5,7.1,5.8C855.5,48.6,859.7,107.5,858.9,128.2z M973,112.4
			c-0.5,1.8-1.1,3.6-1.8,5.4c-2.9,7.3-7.9,13.4-14.2,18.1c-5.6,4.1-12,7.1-18.8,8.7c-7.1,1.7-14.6,1.7-21.9,1.4
			c-9.2-0.4-18.3-1.8-27.1-4.3c-6-1.7-12-3.6-17.1-7.1c-1.5-1-2.9-2.1-4.3-3.4c0.1-11-0.1-25.4-1.5-42c-1-11.5-2.7-23.7-4.9-37.4
			c0.3-0.4,0.5-0.8,0.8-1.3c2.3-3.5,6.3-8.2,10.9-11.6c6.7-5,14.2-9.9,31-11c13.9-0.9,28.3-1.8,41.7,4.4
			c11.9,5.4,20.2,16.2,24.8,28.1C976.6,76.5,977.5,95.9,973,112.4z"/>
		<path class="st0" d="M750.1,37.2L750.1,37.2L750.1,37.2z"/>
	</g>
</g>
</svg>
