<?xml version="1.0" encoding="utf-8"?>
<!-- Generator: Adobe Illustrator 27.2.0, SVG Export Plug-In . SVG Version: 6.00 Build 0)  -->
<svg version="1.1" id="_레이어_2" xmlns="http://www.w3.org/2000/svg" xmlns:xlink="http://www.w3.org/1999/xlink" x="0px"
	 y="0px" viewBox="0 0 2118.3 2117.2" style="enable-background:new 0 0 2118.3 2117.2;" xml:space="preserve">
<style type="text/css">
	.st0{fill:#FFFFFF;}
</style>
<g id="_레이어_1-2">
	<path class="st0" d="M605.2,557c22.4-12.9,15.4-36.7,0-20.4C589.8,520.3,582.8,544.1,605.2,557z M517.5,0h20.2
		c-2.3,3.1-5.6,6.1-10.1,8.7C523.1,6.1,519.8,3.1,517.5,0z M668.9,61c-22.4-12.9-15.4-36.7,0-20.4C684.3,24.3,691.2,48.1,668.9,61z
		 M402.5,0h27.1c-1.6,5-5.8,10.7-13.5,15.2C408.4,10.7,404.1,5,402.5,0L402.5,0z M115.8,553.1c-19-12,3-23.4,20-3.9
		C127.5,573.7,102.8,571.4,115.8,553.1z M52.8,61.5c-25.4-4.9-26.6-29.7-6.7-19.3C55.4,21.8,69.8,42,52.8,61.5z M580.5,119.4
		c-22-13.6-14.3-37.2,0.6-20.4C597,83.1,603.3,107.1,580.5,119.4z M606.1,37.3c-22.4-12.9-15.4-36.7,0-20.4
		C621.5,0.6,628.5,24.4,606.1,37.3z M673.6,609.2c-22.4-12.9-15.4-36.7,0-20.4C689,572.4,695.9,596.2,673.6,609.2z M566.8,465.8
		c15.4-16.3,22.4,7.5,0,20.4C544.4,473.2,551.4,449.4,566.8,465.8z M561.6,593c15.4-16.3,22.4,7.5,0,20.4
		C539.2,600.5,546.2,576.7,561.6,593z M668.9,268.1c-22.4-12.9-15.4-36.7,0-20.4C684.3,231.4,691.2,255.2,668.9,268.1z M10.1,314.4
		c-8.1-24.5,13-37.6,13.6-15.2C46.1,297.3,35.4,319.7,10.1,314.4z M38.1,569.8c20.1-10,18.4,14.8-7.1,19.1
		C14.5,569,29.3,549.2,38.1,569.8z M23.4,646.3c15.4-16.3,22.4,7.5,0,20.4C1,653.8,7.9,629.9,23.4,646.3z M85.4,626.7
		c-21.2-14.8-12.2-37.9,1.7-20.3C103.9,591.5,108.8,615.8,85.4,626.7z M95,212.9c-16.9-19.6-2.4-39.8,6.7-19.2
		C121.6,183.3,120.4,208.1,95,212.9z M63.6,360.6c-0.5-25.8,23.5-32.1,17.5-10.5C103,354.9,86.2,373.1,63.6,360.6z M48,494.2
		c12.5-18.6,23.3,3.7,3.3,20.1C27.1,505.2,30.1,480.6,48,494.2z M62.8,122.5c15.1-16.7,22.5,7,0.4,20.4
		C40.6,130.4,47.1,106.5,62.8,122.5z M37.3,213.8c-25.8,0.7-32.3-23.2-10.7-17.4C31.2,174.4,49.6,191,37.3,213.8z M96.4,287.6
		c-13.8-21.9,3.5-39.7,9.5-18C127.2,262.3,122.2,286.6,96.4,287.6z M74,438.2c-24,9.5-38.3-10.8-16-12.7
		C54.8,403.3,77.8,412.7,74,438.2z M436.4,396.4c3.6-25.6,28.3-28,18.9-7.6C476.2,397,456.7,412.3,436.4,396.4z M589.5,389.5
		c15.4-16.3,22.4,7.5,0,20.4C567.1,397,574.1,373.2,589.5,389.5L589.5,389.5z M443,84.4c-8.6-24.4,12.2-37.9,13.3-15.5
		C478.6,66.5,468.4,89.1,443,84.4z M417.9,302.9c18.8-12.2,20,12.5-4.8,19.8C394.3,304.8,406.8,283.3,417.9,302.9z M422.7,541.2
		c-0.4-22.5,21.2-10.3,14.2,14.6C411.9,562.2,400.2,540.3,422.7,541.2z M436.2,146.2c18-13.4,20.7,11.3-3.6,20.1
		C412.9,149.6,423.9,127.4,436.2,146.2z M513.8,326.2c15.2-16.6,22.5,7.1,0.3,20.4C491.5,334,498.1,310.1,513.8,326.2z M520.2,269.8
		c-22.2,13.2-39.6-4.5-17.8-10C495.7,238.4,519.9,243.9,520.2,269.8z M497.1,532.6c15.4-16.3,22.4,7.5,0,20.4
		C474.8,540,481.7,516.2,497.1,532.6z M439.9,228.3c-8.8-20.7,15.8-17.5,18.7,8.2C437.8,251.8,418.8,235.8,439.9,228.3z
		 M467.3,469.1c6.6-21.5,23.4-3.2,9,18.3C450.6,485.7,446.3,461.3,467.3,469.1z M627.2,170.5c-22.4-12.9-15.4-36.7,0-20.4
		C642.6,133.8,649.6,157.6,627.2,170.5z M447.5,625.1c17.1-14.6,21.4,9.9-2.2,20.3C424.5,630.1,434,607.2,447.5,625.1z M648.7,380.1
		c-22.4-12.9-15.4-36.7,0-20.4C664.1,343.4,671.1,367.2,648.7,380.1z M594.3,312.7c-22.4-12.9-15.4-36.7,0-20.4
		C609.7,275.9,616.7,299.7,594.3,312.7z M590,230c-22.9-12.1-16.8-36.1-0.8-20.4C604,192.7,611.9,216.2,590,230z M639,669
		c-22.4-12.9-15.4-36.7,0-20.4C654.4,632.3,661.4,656.1,639,669z M510.7,633.2c-22.4-12.9-15.4-36.7,0-20.4
		C526.1,596.5,533,620.3,510.7,633.2z M516.6,421.4c-19.6-16.8-8.4-38.9,3.8-20C538.5,388.1,541,412.8,516.6,421.4z M652.3,473
		c-25.7,2.7-34.1-20.6-12-16.5C643.2,434.2,662.8,449.4,652.3,473z M525.7,91.6c-17.1-19.4-2.9-39.7,6.5-19.3
		C552,61.7,551.1,86.5,525.7,91.6z M538.2,189.1c10.9,19.6-13.9,19.1-19.4-6.2C537.9,165.5,558.5,179.4,538.2,189.1z M289.1,6.1
		c0.6-2.6,1.4-4.6,2.4-6.1H302c2.6,4.9,3,13.9-2.9,23.9C273.2,23.6,267.6-0.5,289.1,6.1z M401.8,436.5c1.1,25.8-22.8,32.7-17.2,10.9
		C362.5,443.1,378.9,424.5,401.8,436.5z M91.8,0h24.7c0.4,1.9,0.6,3.9,0.7,6C98.7,17.7,83.2,7.2,91.8,0z M330.5,75.7
		c-22.2-13.3-14.8-37,0.3-20.4C346.6,39.2,353.1,63.1,330.5,75.7z M172.7,0h27.6c0,2.4-0.3,4.9-0.9,7.7
		C183.6,12.7,172.6,5.7,172.7,0L172.7,0z M388.1,197.5c-21.8,13.9-39.7-3.2-18.1-9.4C362.5,166.9,386.9,171.7,388.1,197.5z
		 M344.8,510.2c-17.1-14.6,6.4-22.7,20.4-1C353.3,532.2,329.2,526.4,344.8,510.2z M360.2,367.2c15.1,16.6-9.1,21.8-20.3-1.5
		C354.4,344.3,377.6,353,360.2,367.2z M341.8,303.7c-24.9-6.9-24.2-31.6-5.1-19.7C347.4,264.3,360.2,285.5,341.8,303.7z
		 M364.8,139.2c-22.3-13.1-15.1-36.9,0.2-20.4C380.5,102.6,387.3,126.4,364.8,139.2z M0,138.4v-18.9C5.4,120,6.9,129.3,0,138.4z
		 M429.6,706.3h-27.1c-3-9.4,3.5-15.9,13.5-5.2C426.2,690.4,432.6,696.9,429.6,706.3L429.6,706.3z M379.2,668.1
		c20.4-9.5,18,15.2-7.5,18.9C355.7,666.7,371,647.2,379.2,668.1z M706.3,513.9v22.3c-10.2,7.5-20.7,2-10.2-10.8
		C681.5,515,693,506.5,706.3,513.9L706.3,513.9z M136.6,119.7c18-13.4,20.8,11.2-3.5,20.1C113.2,123.2,124.2,101,136.6,119.7z
		 M706.3,119.6v18.9c-2,2.6-4.7,5.3-8.2,7.7c-23.2-11.3-18-35.5-1.5-20.3C700.4,121.1,703.7,119.4,706.3,119.6L706.3,119.6z
		 M706.3,383.8v18.1C699.4,393.2,700.7,384.1,706.3,383.8z M116.5,706.3H91.8c1.6-1.3,4-2.5,7.4-3.5
		C92.5,683.3,112.3,685.8,116.5,706.3z M302,706.3h-10.6C294.8,700.6,299.5,701.5,302,706.3z M0,536.2v-22.3c3.3,1.9,6.8,4.8,10,8.9
		C7.3,529.2,3.7,533.5,0,536.2L0,536.2z M0,401.9v-18.1c2.5-0.1,5.8,1.5,9.6,5.7c15.8-16,22.2,8-0.5,20.4
		C5.2,407.5,2.2,404.7,0,401.9z M200.3,706.3h-27.6c0.1-3.2,3.6-6,11.6-6.1C182.9,680.2,200.4,686.7,200.3,706.3L200.3,706.3z
		 M537.8,706.3h-20.2c-9.1-12.2-2.2-24.7,10.1-11.7C540,681.6,546.9,694.1,537.8,706.3z M209.9,128.5c-10.1-23.8,9.7-38.6,12.2-16.3
		C244.3,108.4,235.6,131.6,209.9,128.5z M184.8,217.9c-25.3,5.5-36.1-16.8-13.7-15.1C171.5,180.3,192.7,193.2,184.8,217.9z
		 M179.4,389.2c-15.8-20.5-0.3-39.8,7.7-18.9C207.6,361.1,205,385.8,179.4,389.2z M239.1,167.7c14.5-17.2,22.8,6.2,1.1,20.4
		C217.2,176.4,222.9,152.2,239.1,167.7z M207.2,441.5c7.4-21.2,23.5-2.3,8.3,18.6C189.8,457.5,186.5,432.9,207.2,441.5z
		 M150.6,638.3c14.4-17.2,22.8,6.1,1.2,20.3C128.7,647.1,134.3,622.9,150.6,638.3z M158.8,316.6c2.8-25.7,27.4-28.9,18.7-8.2
		C198.6,315.9,179.6,331.9,158.8,316.6z M127.8,395c18.3-13,20.5,11.7-4,20C104.4,398,115.9,376,127.8,395z M136.3,49.6
		c12.3-18.8,23.3,3.4,3.6,20.1C115.5,60.9,118.3,36.2,136.3,49.6z M207.5,262.2c10-23.8,34.5-19.9,20.2-2.6
		C245.8,272.9,223.1,282.8,207.5,262.2z M141.7,476.5c11.8-19.1,23.4,2.8,4.2,20C121.3,488.4,123.3,463.6,141.7,476.5z M282.7,123.8
		c-21.2-14.8-12.2-37.9,1.7-20.3C301.2,88.5,306.1,112.8,282.7,123.8z M208.8,52.5c11.9-19,23.4,2.9,4,20
		C188.3,64.2,190.5,39.5,208.8,52.5z M372.8,603c-25.8-1.5-30.2-25.9-9.1-18.2C370.2,563.3,387.1,581.5,372.8,603z M307.2,232.8
		c-25.8-1.4-30.3-25.8-9.2-18.2C304.4,193.1,321.4,211.2,307.2,232.8z M194.4,574.8c-12.2-18.8,12.6-20,19.8,4.8
		C196.3,598.3,174.9,585.9,194.4,574.8z M303.4,634.2c12.9-18.3,23.2,4.2,2.9,20.2C282.3,644.8,285.8,620.2,303.4,634.2z
		 M240.2,625.2c13.1-18.2,23.2,4.4,2.7,20.2C219,635.6,222.8,611,240.2,625.2z M276.8,333.7c14,17.6-10.6,21.1-20.2-2.9
		C272.6,310.4,295.1,320.7,276.8,333.7z M290.3,554.8c-11.2-19.4,13.6-19.3,19.5,5.8C291,578.3,270.2,564.8,290.3,554.8z
		 M260.6,485.5c-0.9-22.4,21-10.8,14.6,14.2C250.3,506.7,238.1,485.1,260.6,485.5z M289.7,415.5c11.9-19.1,23.4,2.9,4,20
		C269.2,427.3,271.3,402.6,289.7,415.5z M605.2,1242.1c15.4-16.3,22.4,7.5,0,20.4C582.8,1249.6,589.8,1225.8,605.2,1242.1z
		 M517.5,705.5h20.2c-2.3,3.1-5.6,6.1-10.1,8.7C523.2,711.6,519.8,708.5,517.5,705.5z M668.9,766.4c-22.4-12.9-15.4-36.7,0-20.4
		C684.3,729.7,691.3,753.5,668.9,766.4z M402.6,705.5h27.1c-1.6,5-5.8,10.7-13.5,15.2C408.4,716.2,404.1,710.4,402.6,705.5
		L402.6,705.5z M115.8,1258.6c-19-12,3-23.4,20-3.9C127.5,1279.1,102.8,1276.8,115.8,1258.6z M52.8,767
		c-25.4-4.9-26.6-29.7-6.7-19.3C55.4,727.3,69.8,747.5,52.8,767z M580.5,824.8c-22-13.6-14.3-37.2,0.6-20.4
		C597,788.6,603.3,812.6,580.5,824.8z M606.1,742.8c-22.4-12.9-15.4-36.7,0-20.4C621.5,706.1,628.5,729.9,606.1,742.8z
		 M673.6,1314.6c-22.4-12.9-15.4-36.7,0-20.4C689,1277.9,695.9,1301.7,673.6,1314.6z M566.8,1171.2c15.4-16.3,22.4,7.5,0,20.4
		C544.4,1178.7,551.4,1154.9,566.8,1171.2z M561.6,1298.5c15.4-16.3,22.4,7.5,0,20.4C539.2,1306,546.2,1282.2,561.6,1298.5z
		 M668.9,973.6c-22.4-12.9-15.4-36.7,0-20.4C684.3,936.9,691.2,960.7,668.9,973.6z M10.1,1019.9c-8.1-24.5,13-37.6,13.6-15.2
		C46.1,1002.8,35.4,1025.2,10.1,1019.9z M38.1,1275.3c20.1-10,18.4,14.8-7.1,19.1C14.5,1274.5,29.3,1254.6,38.1,1275.3z
		 M23.4,1351.8c15.4-16.3,22.4,7.5,0,20.4C1,1359.2,7.9,1335.4,23.4,1351.8z M85.4,1332.2c-21.2-14.8-12.2-37.9,1.7-20.3
		C103.9,1296.9,108.8,1321.2,85.4,1332.2z M95,918.3c-16.9-19.6-2.4-39.8,6.7-19.2C121.6,888.8,120.4,913.5,95,918.3z M63.6,1066.1
		c-0.5-25.8,23.5-32.1,17.5-10.5C103,1060.3,86.2,1078.6,63.6,1066.1z M48,1199.6c12.5-18.6,23.3,3.7,3.3,20.1
		C27.1,1210.7,30.1,1186,48,1199.6z M62.8,828c15.1-16.7,22.5,7,0.4,20.4C40.6,835.9,47.1,812,62.8,828z M37.3,919.2
		C11.5,919.9,5,896,26.7,901.9C31.2,879.9,49.6,896.5,37.3,919.2z M96.4,993.1c-13.8-21.9,3.5-39.7,9.5-18
		C127.2,967.8,122.2,992.1,96.4,993.1z M74,1143.7c-24,9.5-38.3-10.8-16-12.7C54.8,1108.8,77.8,1118.1,74,1143.7z M436.4,1101.9
		c3.6-25.6,28.3-28,18.9-7.6C476.2,1102.4,456.7,1117.8,436.4,1101.9z M589.5,1095c15.4-16.3,22.4,7.5,0,20.4
		C567.1,1102.4,574.1,1078.6,589.5,1095z M443,789.9c-8.6-24.4,12.2-37.9,13.3-15.5C478.6,772,468.4,794.6,443,789.9z M417.8,1008.3
		c18.8-12.2,20,12.5-4.8,19.8C394.3,1010.3,406.8,988.8,417.8,1008.3z M422.7,1246.7c-0.4-22.4,21.2-10.3,14.2,14.6
		C411.8,1267.7,400.2,1245.8,422.7,1246.7z M436.2,851.6c18-13.4,20.7,11.3-3.6,20.1C412.9,855.1,423.9,832.9,436.2,851.6z
		 M513.8,1031.6c15.2-16.6,22.5,7.1,0.3,20.4C491.5,1039.4,498.1,1015.5,513.8,1031.6z M520.2,975.2c-22.2,13.2-39.6-4.5-17.8-10
		C495.7,943.8,519.9,949.4,520.2,975.2z M497.1,1238c15.4-16.3,22.4,7.5,0,20.4C474.7,1245.5,481.7,1221.7,497.1,1238z M439.9,933.8
		c-8.8-20.7,15.8-17.5,18.7,8.2C437.8,957.3,418.8,941.3,439.9,933.8z M467.3,1174.6c6.6-21.5,23.4-3.2,9,18.3
		C450.6,1191.2,446.3,1166.7,467.3,1174.6z M627.2,876c-22.4-12.9-15.4-36.7,0-20.4C642.6,839.3,649.6,863.1,627.2,876z
		 M447.5,1330.6c17.1-14.6,21.4,9.9-2.2,20.3C424.5,1335.6,434,1312.7,447.5,1330.6z M648.7,1085.6c-22.4-12.9-15.4-36.7,0-20.4
		C664.1,1048.8,671.1,1072.6,648.7,1085.6z M594.3,1018.1c-22.4-12.9-15.4-36.7,0-20.4C609.7,981.4,616.7,1005.2,594.3,1018.1z
		 M590,935.4c-22.9-12.1-16.8-36.1-0.8-20.4C604,898.1,611.9,921.7,590,935.4z M639,1374.5c-22.4-12.9-15.4-36.7,0-20.4
		C654.4,1337.8,661.4,1361.6,639,1374.5z M510.7,1338.6c-22.4-12.9-15.4-36.7,0-20.4C526.1,1301.9,533,1325.7,510.7,1338.6z
		 M516.6,1126.9c-19.6-16.8-8.4-38.9,3.8-20C538.5,1093.6,541,1118.3,516.6,1126.9z M652.3,1178.4c-25.7,2.7-34.1-20.6-12-16.5
		C643.2,1139.7,662.8,1154.8,652.3,1178.4z M525.7,797c-17.1-19.4-2.9-39.7,6.5-19.3C552,767.1,551.1,791.9,525.7,797z M538.2,894.6
		c10.9,19.6-13.9,19.1-19.4-6.2C537.9,871,558.5,884.9,538.2,894.6z M289,711.6c0.6-2.6,1.4-4.6,2.4-6.1H302
		c2.6,4.9,3,13.9-2.9,23.9C273.2,729.1,267.6,704.9,289,711.6z M401.8,1141.9c1.1,25.8-22.8,32.7-17.2,10.9
		C362.5,1148.6,378.9,1130,401.8,1141.9z M91.8,705.5h24.7c0.4,1.9,0.6,3.9,0.7,6C98.7,723.1,83.2,712.6,91.8,705.5z M330.5,781.2
		c-22.2-13.3-14.8-37,0.3-20.4C346.6,744.7,353.1,768.6,330.5,781.2z M172.7,705.5h27.6c0,2.4-0.3,5-0.9,7.7
		C183.5,718.2,172.6,711.2,172.7,705.5L172.7,705.5z M388.1,902.9c-21.8,13.9-39.7-3.2-18.1-9.4
		C362.5,872.4,386.9,877.1,388.1,902.9z M344.8,1215.7c-17.1-14.6,6.4-22.7,20.4-1C353.3,1237.7,329.2,1231.8,344.8,1215.7z
		 M360.2,1072.7c15.1,16.6-9.1,21.8-20.3-1.5C354.4,1049.8,377.6,1058.5,360.2,1072.7z M341.8,1009.2c-24.9-6.9-24.2-31.7-5.1-19.7
		C347.4,969.8,360.2,991,341.8,1009.2z M364.8,844.6c-22.3-13.1-15.1-36.9,0.2-20.4C380.5,808,387.3,831.9,364.8,844.6z M0,843.9
		V825C5.4,825.5,6.9,834.8,0,843.9z M429.6,1411.7h-27.1c-3-9.4,3.5-15.9,13.5-5.2C426.1,1395.8,432.6,1402.3,429.6,1411.7
		L429.6,1411.7z M379.2,1373.6c20.4-9.5,18,15.2-7.5,18.9C355.7,1372.2,371,1352.7,379.2,1373.6z M706.2,1219.4v22.3
		c-10.2,7.4-20.7,2-10.2-10.8C681.5,1220.4,693,1212,706.2,1219.4z M136.6,825.2c18-13.4,20.8,11.2-3.5,20.1
		C113.2,828.7,124.2,806.4,136.6,825.2z M706.3,825v18.9c-2,2.6-4.7,5.3-8.2,7.7c-23.2-11.3-18-35.5-1.5-20.3
		C700.4,826.6,703.7,824.8,706.3,825L706.3,825z M706.3,1089.2v18.1C699.4,1098.7,700.7,1089.6,706.3,1089.2z M116.5,1411.7H91.8
		c1.6-1.3,4-2.5,7.4-3.5C92.5,1388.8,112.3,1391.3,116.5,1411.7z M302,1411.7h-10.6C294.8,1406.1,299.5,1407,302,1411.7z M0,1241.7
		v-22.3c3.3,1.9,6.8,4.8,10,8.9C7.3,1234.6,3.7,1239,0,1241.7L0,1241.7z M0,1107.4v-18.1c2.5-0.2,5.8,1.5,9.6,5.7
		c15.8-16,22.2,8-0.5,20.4C5.2,1112.9,2.2,1110.2,0,1107.4z M200.3,1411.7h-27.6c0.1-3.2,3.6-6,11.6-6.1
		C182.9,1385.7,200.4,1392.2,200.3,1411.7L200.3,1411.7z M537.8,1411.7h-20.2c-9.1-12.2-2.2-24.7,10.1-11.7
		C540,1387,546.9,1399.6,537.8,1411.7z M209.9,834c-10.1-23.8,9.7-38.6,12.2-16.3C244.3,813.9,235.6,837.1,209.9,834z M184.8,923.3
		c-25.3,5.5-36.1-16.8-13.7-15.1C171.5,885.8,192.7,898.7,184.8,923.3z M179.4,1094.7c-15.8-20.4-0.3-39.8,7.7-18.9
		C207.6,1066.6,205,1091.3,179.4,1094.7z M239.1,873.1c14.5-17.2,22.8,6.2,1.1,20.4C217.2,881.8,222.9,857.7,239.1,873.1z
		 M207.2,1147c7.4-21.2,23.5-2.3,8.3,18.6C189.8,1162.9,186.5,1138.4,207.2,1147z M150.6,1343.8c14.4-17.2,22.8,6.1,1.2,20.3
		C128.7,1352.6,134.3,1328.4,150.6,1343.8z M158.8,1022.1c2.8-25.7,27.4-28.9,18.7-8.2C198.6,1021.4,179.6,1037.3,158.8,1022.1z
		 M127.8,1100.5c18.3-13,20.5,11.7-4,20C104.4,1103.5,115.9,1081.5,127.8,1100.5z M136.3,755.1c12.3-18.8,23.3,3.4,3.6,20.1
		C115.5,766.4,118.3,741.7,136.3,755.1z M207.5,967.7c10-23.8,34.5-19.9,20.2-2.6C245.8,978.3,223.1,988.3,207.5,967.7z M141.7,1182
		c11.8-19.1,23.4,2.8,4.2,20C121.3,1193.8,123.3,1169.1,141.7,1182z M282.7,829.2c-21.2-14.8-12.2-37.9,1.7-20.3
		C301.2,794,306.1,818.3,282.7,829.2z M208.8,758c11.9-19,23.4,2.9,4,20C188.3,769.7,190.5,745,208.8,758z M372.8,1308.5
		c-25.8-1.5-30.2-25.9-9.1-18.2C370.2,1268.8,387.1,1287,372.8,1308.5z M307.2,938.3c-25.8-1.4-30.3-25.8-9.2-18.2
		C304.4,898.6,321.4,916.7,307.2,938.3z M194.4,1280.3c-12.2-18.8,12.6-20,19.8,4.8C196.3,1303.8,174.9,1291.4,194.4,1280.3z
		 M303.3,1339.7c12.9-18.3,23.2,4.2,2.9,20.2C282.2,1350.3,285.8,1325.7,303.3,1339.7z M240.2,1330.6c13.1-18.2,23.2,4.4,2.7,20.2
		C219,1341,222.8,1316.5,240.2,1330.6z M276.8,1039.2c14,17.6-10.6,21.1-20.2-2.9C272.6,1015.9,295.1,1026.2,276.8,1039.2z
		 M290.3,1260.2c-11.2-19.4,13.6-19.3,19.5,5.8C291,1283.8,270.2,1270.3,290.3,1260.2z M260.6,1191c-0.9-22.4,21-10.8,14.6,14.2
		C250.2,1212.2,238.1,1190.6,260.6,1191z M289.7,1121c11.9-19.1,23.4,2.9,4,20C269.2,1132.8,271.3,1108.1,289.7,1121z M605.2,1947.6
		c15.4-16.3,22.4,7.5,0,20.4C582.8,1955.1,589.8,1931.3,605.2,1947.6z M517.5,1411h20.2c-2.3,3.1-5.6,6.1-10.1,8.7
		C523.1,1417.1,519.8,1414,517.5,1411z M668.9,1471.9c-22.4-12.9-15.4-36.7,0-20.4C684.3,1435.2,691.3,1459,668.9,1471.9z
		 M402.6,1411h27.1c-1.6,5-5.8,10.7-13.5,15.2C408.4,1421.7,404.1,1415.9,402.6,1411L402.6,1411z M115.8,1964.1
		c-19-12,3-23.4,20-3.9C127.5,1984.6,102.8,1982.3,115.8,1964.1z M52.8,1472.5c-25.4-4.9-26.6-29.7-6.7-19.3
		C55.4,1432.8,69.8,1452.9,52.8,1472.5z M580.5,1530.3c-22-13.6-14.3-37.2,0.6-20.4C597,1494.1,603.3,1518.1,580.5,1530.3z
		 M606.1,1448.3c-22.4-12.9-15.4-36.7,0-20.4C621.5,1411.5,628.5,1435.3,606.1,1448.3z M673.6,2020.1c-22.4-12.9-15.4-36.7,0-20.4
		C689,1983.4,695.9,2007.2,673.6,2020.1z M566.8,1876.7c15.4-16.3,22.4,7.5,0,20.4C544.4,1884.2,551.4,1860.4,566.8,1876.7z
		 M561.6,2004c15.4-16.3,22.4,7.5,0,20.4C539.2,2011.4,546.2,1987.6,561.6,2004z M668.9,1679.1c-22.4-12.9-15.4-36.7,0-20.4
		C684.3,1642.3,691.2,1666.1,668.9,1679.1z M10.1,1725.4c-8.1-24.6,13-37.6,13.6-15.2C46.1,1708.2,35.4,1730.6,10.1,1725.4z
		 M38.1,1980.8c20.1-10,18.4,14.8-7.1,19.1C14.5,1980,29.3,1960.1,38.1,1980.8z M23.4,2057.2c15.4-16.3,22.4,7.5,0,20.4
		C1,2064.7,7.9,2040.9,23.4,2057.2z M85.4,2037.7c-21.2-14.8-12.2-37.9,1.7-20.3C103.9,2002.4,108.8,2026.7,85.4,2037.7z M95,1623.8
		c-16.9-19.6-2.4-39.8,6.7-19.2C121.6,1594.2,120.4,1619,95,1623.8z M63.6,1771.6c-0.5-25.8,23.5-32.1,17.5-10.5
		C103,1765.8,86.2,1784.1,63.6,1771.6z M48,1905.1c12.5-18.6,23.3,3.7,3.3,20.1C27.1,1916.1,30.1,1891.5,48,1905.1z M62.8,1533.5
		c15.1-16.7,22.5,7,0.4,20.4C40.6,1541.4,47.1,1517.4,62.8,1533.5z M37.3,1624.7c-25.8,0.7-32.3-23.2-10.7-17.4
		C31.2,1585.4,49.6,1602,37.3,1624.7z M96.4,1698.5c-13.8-21.9,3.5-39.7,9.5-18C127.2,1673.2,122.2,1697.5,96.4,1698.5z M74,1849.2
		c-24,9.5-38.3-10.8-16-12.7C54.8,1814.3,77.8,1823.6,74,1849.2z M436.4,1807.3c3.6-25.6,28.3-28,18.9-7.6
		C476.2,1807.9,456.7,1823.3,436.4,1807.3z M589.5,1800.4c15.4-16.3,22.4,7.5,0,20.4C567.1,1807.9,574.1,1784.1,589.5,1800.4z
		 M443,1495.3c-8.6-24.4,12.2-37.9,13.3-15.5C478.6,1477.4,468.4,1500.1,443,1495.3z M417.8,1713.8c18.8-12.2,20,12.6-4.8,19.8
		C394.3,1715.8,406.8,1694.3,417.8,1713.8z M422.7,1952.2c-0.4-22.4,21.2-10.3,14.2,14.6C411.8,1973.2,400.2,1951.2,422.7,1952.2z
		 M436.2,1557.1c18-13.4,20.7,11.3-3.6,20.1C412.9,1560.6,423.9,1538.3,436.2,1557.1z M513.8,1737.1c15.2-16.6,22.5,7.1,0.3,20.4
		C491.5,1744.9,498.1,1721,513.8,1737.1z M520.2,1680.7c-22.2,13.2-39.6-4.5-17.8-10C495.7,1649.3,519.9,1654.9,520.2,1680.7z
		 M497.1,1943.5c15.4-16.3,22.4,7.5,0,20.4C474.7,1951,481.7,1927.2,497.1,1943.5z M439.9,1639.3c-8.8-20.7,15.8-17.5,18.7,8.2
		C437.8,1662.8,418.8,1646.8,439.9,1639.3z M467.3,1880c6.6-21.5,23.4-3.2,9,18.3C450.6,1896.6,446.3,1872.2,467.3,1880z
		 M627.2,1581.5c-22.4-12.9-15.4-36.7,0-20.4C642.6,1544.8,649.6,1568.5,627.2,1581.5z M447.5,2036.1c17.1-14.6,21.4,9.9-2.2,20.3
		C424.5,2041.1,434,2018.2,447.5,2036.1L447.5,2036.1z M648.7,1791c-22.4-12.9-15.4-36.7,0-20.4
		C664.1,1754.3,671.1,1778.1,648.7,1791z M594.3,1723.6c-22.4-12.9-15.4-36.7,0-20.4C609.7,1686.9,616.7,1710.7,594.3,1723.6z
		 M590,1640.9c-22.9-12.1-16.8-36.1-0.8-20.4C604,1603.6,611.9,1627.1,590,1640.9z M639,2080c-22.4-12.9-15.4-36.7,0-20.4
		C654.4,2043.3,661.4,2067.1,639,2080z M510.7,2044.1c-22.4-12.9-15.4-36.7,0-20.4C526.1,2007.4,533,2031.2,510.7,2044.1z
		 M516.6,1832.4c-19.6-16.8-8.4-38.9,3.8-20C538.5,1799.1,541,1823.8,516.6,1832.4z M652.3,1883.9c-25.7,2.7-34.1-20.6-12-16.5
		C643.2,1845.2,662.8,1860.3,652.3,1883.9z M525.7,1502.5c-17.1-19.4-2.9-39.7,6.5-19.3C552,1472.6,551.1,1497.4,525.7,1502.5z
		 M538.2,1600.1c10.9,19.6-13.9,19.1-19.4-6.2C537.9,1576.5,558.5,1590.3,538.2,1600.1z M289,1417.1c0.6-2.6,1.4-4.6,2.4-6.1H302
		c2.6,4.9,3,13.9-2.9,23.9C273.2,1434.6,267.6,1410.4,289,1417.1z M401.8,1847.4c1.1,25.8-22.8,32.7-17.2,10.9
		C362.5,1854.1,378.9,1835.4,401.8,1847.4z M91.8,1410.9h24.7c0.4,1.9,0.6,3.9,0.7,6C98.7,1428.6,83.2,1418.1,91.8,1410.9z
		 M330.5,1486.6c-22.2-13.3-14.8-37,0.3-20.4C346.5,1450.2,353.1,1474.1,330.5,1486.6z M172.7,1410.9h27.6c0,2.4-0.3,4.9-0.9,7.7
		C183.5,1423.6,172.6,1416.7,172.7,1410.9L172.7,1410.9z M388,1608.4c-21.8,13.9-39.7-3.2-18.1-9.4
		C362.5,1577.9,386.9,1582.6,388,1608.4z M344.8,1921.1c-17.1-14.6,6.4-22.7,20.4-1C353.3,1943.1,329.2,1937.3,344.8,1921.1z
		 M360.2,1778.1c15.1,16.6-9.1,21.8-20.3-1.5C354.4,1755.2,377.6,1764,360.2,1778.1z M341.8,1714.6c-24.9-6.9-24.2-31.7-5.1-19.7
		C347.4,1675.2,360.1,1696.5,341.8,1714.6z M364.8,1550.1c-22.3-13.1-15.1-36.9,0.2-20.4C380.5,1513.5,387.3,1537.4,364.8,1550.1z
		 M0,1549.4v-18.9C5.4,1530.9,6.9,1540.3,0,1549.4z M429.6,2117.2h-27.1c-3-9.4,3.5-15.9,13.5-5.2
		C426.1,2101.3,432.6,2107.8,429.6,2117.2L429.6,2117.2z M379.2,2079c20.4-9.5,18,15.2-7.5,18.9
		C355.7,2077.7,370.9,2058.1,379.2,2079z M706.2,1924.8v22.3c-10.2,7.4-20.7,2-10.2-10.8C681.5,1925.9,693,1917.4,706.2,1924.8z
		 M136.6,1530.6c18-13.4,20.8,11.2-3.5,20.1C113.2,1534.1,124.2,1511.9,136.6,1530.6z M706.2,1530.5v18.9c-2,2.6-4.7,5.3-8.2,7.7
		c-23.2-11.3-18-35.5-1.5-20.3C700.3,1532.1,703.7,1530.3,706.2,1530.5L706.2,1530.5z M706.2,1794.7v18.1
		C699.4,1804.1,700.7,1795.1,706.2,1794.7z M116.5,2117.2H91.8c1.6-1.3,4-2.5,7.4-3.5C92.5,2094.3,112.3,2096.8,116.5,2117.2z
		 M302,2117.2h-10.6C294.7,2111.5,299.4,2112.5,302,2117.2z M0,1947.2v-22.3c3.3,1.9,6.8,4.8,10,8.9C7.3,1940.1,3.7,1944.5,0,1947.2
		L0,1947.2z M0,1812.9v-18.1c2.5-0.2,5.8,1.5,9.6,5.7c15.8-16,22.2,8-0.5,20.4C5.2,1818.4,2.2,1815.7,0,1812.9z M200.3,2117.2h-27.6
		c0.1-3.2,3.6-6,11.6-6.1C182.9,2091.2,200.4,2097.7,200.3,2117.2L200.3,2117.2z M537.8,2117.2h-20.2c-9.1-12.2-2.2-24.7,10.1-11.7
		C540,2092.5,546.9,2105.1,537.8,2117.2z M209.9,1539.5c-10.1-23.8,9.7-38.6,12.2-16.3C244.3,1519.4,235.6,1542.6,209.9,1539.5z
		 M184.8,1628.8c-25.3,5.5-36.1-16.8-13.7-15.1C171.5,1591.3,192.7,1604.2,184.8,1628.8z M179.4,1800.2
		c-15.8-20.4-0.3-39.8,7.7-18.9C207.6,1772.1,205,1796.8,179.4,1800.2z M239.1,1578.6c14.5-17.2,22.8,6.2,1.1,20.4
		C217.2,1587.3,222.9,1563.2,239.1,1578.6z M207.3,1852.5c7.4-21.2,23.5-2.3,8.3,18.6C189.8,1868.4,186.5,1843.8,207.3,1852.5z
		 M150.6,2049.2c14.4-17.2,22.8,6.1,1.2,20.4C128.7,2058.1,134.3,2033.9,150.6,2049.2z M158.8,1727.5c2.8-25.7,27.4-28.9,18.7-8.2
		C198.6,1726.9,179.6,1742.8,158.8,1727.5z M127.8,1806c18.3-13,20.5,11.7-4,20C104.4,1809,115.9,1787,127.8,1806z M136.3,1460.6
		c12.3-18.8,23.3,3.4,3.6,20.1C115.6,1471.9,118.3,1447.2,136.3,1460.6z M207.5,1673.2c10-23.8,34.5-19.9,20.2-2.6
		C245.9,1683.8,223.1,1693.8,207.5,1673.2z M141.7,1887.5c11.8-19.1,23.4,2.8,4.2,20C121.3,1899.3,123.3,1874.6,141.7,1887.5z
		 M282.7,1534.7c-21.2-14.8-12.2-37.9,1.7-20.3C301.2,1499.4,306.1,1523.8,282.7,1534.7z M208.8,1463.5c11.9-19,23.4,2.9,4,20
		C188.3,1475.2,190.5,1450.5,208.8,1463.5z M372.8,2014c-25.8-1.5-30.2-25.9-9.1-18.2C370.2,1974.3,387.1,1992.4,372.8,2014z
		 M307.2,1643.8c-25.8-1.4-30.3-25.8-9.2-18.2C304.4,1604.1,321.4,1622.2,307.2,1643.8z M194.4,1985.8c-12.2-18.8,12.6-20,19.8,4.8
		C196.3,2009.3,174.9,1996.9,194.4,1985.8z M303.4,2045.2c12.9-18.3,23.2,4.2,2.9,20.2C282.3,2055.8,285.8,2031.2,303.4,2045.2
		L303.4,2045.2z M240.2,2036.1c13.1-18.2,23.2,4.4,2.7,20.2C219,2046.5,222.8,2022,240.2,2036.1L240.2,2036.1z M276.8,1744.6
		c14,17.6-10.6,21.1-20.2-2.9C272.6,1721.4,295.1,1731.7,276.8,1744.6z M290.3,1965.7c-11.2-19.4,13.6-19.3,19.5,5.8
		C291,1989.3,270.2,1975.8,290.3,1965.7z M260.6,1896.5c-0.9-22.4,21-10.8,14.6,14.2C250.3,1917.7,238.1,1896.1,260.6,1896.5z
		 M289.7,1826.5c11.9-19.1,23.4,2.9,4,20C269.2,1838.3,271.4,1813.5,289.7,1826.5z M1311.2,536.7c15.4-16.3,22.4,7.5,0,20.4
		C1288.8,544.1,1295.8,520.3,1311.2,536.7z M1223.5,0h20.2c-2.3,3.1-5.6,6.1-10.1,8.7C1229.1,6.1,1225.8,3.1,1223.5,0z M1374.9,61
		c-22.4-12.9-15.4-36.7,0-20.4C1390.3,24.3,1397.2,48.1,1374.9,61z M1108.6,0h27.1c-1.6,5-5.8,10.7-13.5,15.2
		C1114.4,10.7,1110.1,5,1108.6,0L1108.6,0z M821.9,553.1c-19-12,3-23.4,20-3.9C833.5,573.7,808.8,571.4,821.9,553.1z M758.8,61.5
		c-25.4-4.9-26.6-29.7-6.7-19.3C761.4,21.8,775.8,42,758.8,61.5z M1286.5,119.4c-22-13.6-14.3-37.2,0.6-20.4
		C1303,83.1,1309.3,107.1,1286.5,119.4z M1312.1,37.3c-22.4-12.9-15.4-36.7,0-20.4C1327.5,0.6,1334.5,24.4,1312.1,37.3z
		 M1379.6,609.2c-22.4-12.9-15.4-36.7,0-20.4C1395,572.4,1401.9,596.2,1379.6,609.2z M1272.8,465.8c15.4-16.3,22.4,7.5,0,20.4
		C1250.4,473.2,1257.4,449.4,1272.8,465.8z M1267.6,593c15.4-16.3,22.4,7.5,0,20.4C1245.2,600.5,1252.2,576.7,1267.6,593z
		 M1374.9,268.1c-22.4-12.9-15.4-36.7,0-20.4C1390.3,231.4,1397.2,255.2,1374.9,268.1z M716.1,314.4c-8.1-24.5,13-37.6,13.6-15.2
		C752.1,297.3,741.4,319.7,716.1,314.4z M744.1,569.8c20.1-10,18.4,14.8-7.1,19.1C720.5,569,735.3,549.2,744.1,569.8z M729.4,646.3
		c15.4-16.3,22.4,7.5,0,20.4C707,653.8,713.9,630,729.4,646.3z M791.4,626.7c-21.2-14.8-12.2-37.9,1.7-20.3
		C809.9,591.5,814.8,615.8,791.4,626.7z M801,212.9c-16.9-19.6-2.4-39.8,6.7-19.2C827.6,183.3,826.4,208.1,801,212.9z M769.6,360.6
		c-0.5-25.8,23.5-32.1,17.5-10.5C809,354.9,792.2,373.1,769.6,360.6z M754,494.2c12.5-18.6,23.3,3.7,3.3,20.1
		C733.1,505.2,736.1,480.6,754,494.2z M768.8,122.5c15.1-16.7,22.5,7,0.4,20.4C746.6,130.4,753,106.5,768.8,122.5z M743.3,213.8
		c-25.8,0.7-32.3-23.2-10.7-17.4C737.2,174.4,755.6,191,743.3,213.8z M802.4,287.6c-13.8-21.9,3.5-39.7,9.5-18
		C833.2,262.3,828.2,286.6,802.4,287.6z M780,438.2c-24,9.5-38.3-10.8-16-12.7C760.8,403.3,783.8,412.7,780,438.2z M1142.4,396.4
		c3.6-25.6,28.3-28,18.9-7.6C1182.2,397,1162.7,412.3,1142.4,396.4z M1295.5,389.5c15.4-16.3,22.4,7.5,0,20.4
		C1273.1,397,1280.1,373.2,1295.5,389.5L1295.5,389.5z M1149,84.4c-8.6-24.4,12.2-37.9,13.3-15.5C1184.5,66.5,1174.4,89.1,1149,84.4
		z M1123.8,302.9c18.8-12.2,20,12.5-4.8,19.8C1100.3,304.8,1112.8,283.3,1123.8,302.9z M1128.7,541.2c-0.3-22.5,21.2-10.3,14.2,14.6
		C1117.8,562.2,1106.2,540.3,1128.7,541.2z M1142.2,146.2c18-13.4,20.7,11.3-3.6,20.1C1118.9,149.6,1129.9,127.4,1142.2,146.2z
		 M1219.8,326.2c15.2-16.6,22.5,7.1,0.3,20.4C1197.5,334,1204.1,310.1,1219.8,326.2z M1226.2,269.8c-22.2,13.2-39.6-4.5-17.8-10
		C1201.7,238.4,1225.9,243.9,1226.2,269.8z M1203.1,532.6c15.4-16.3,22.4,7.5,0,20.4C1180.7,540,1187.7,516.2,1203.1,532.6z
		 M1145.9,228.3c-8.8-20.7,15.8-17.5,18.7,8.2C1143.7,251.8,1124.8,235.8,1145.9,228.3z M1173.3,469.1c6.6-21.5,23.4-3.2,9,18.3
		C1156.6,485.7,1152.3,461.3,1173.3,469.1z M1333.2,170.5c-22.4-12.9-15.4-36.7,0-20.4C1348.6,133.8,1355.6,157.6,1333.2,170.5z
		 M1153.5,625.1c17.1-14.6,21.4,9.9-2.2,20.3C1130.5,630.1,1140,607.2,1153.5,625.1z M1354.7,380.1c-22.4-12.9-15.4-36.7,0-20.4
		C1370.1,343.4,1377.1,367.2,1354.7,380.1z M1300.3,312.7c-22.4-12.9-15.4-36.7,0-20.4C1315.7,275.9,1322.7,299.7,1300.3,312.7z
		 M1296,230c-22.9-12.1-16.8-36.1-0.8-20.4C1310,192.7,1317.9,216.2,1296,230z M1345,669c-22.4-12.9-15.4-36.7,0-20.4
		C1360.4,632.3,1367.4,656.1,1345,669z M1216.7,633.2c-22.4-12.9-15.4-36.7,0-20.4C1232.1,596.5,1239.1,620.3,1216.7,633.2z
		 M1222.6,421.4c-19.6-16.8-8.4-38.9,3.8-20C1244.5,388.1,1247,412.8,1222.6,421.4z M1358.3,473c-25.7,2.7-34.1-20.6-12-16.5
		C1349.2,434.2,1368.8,449.4,1358.3,473z M1231.7,91.6c-17.1-19.4-2.9-39.7,6.5-19.3C1258,61.7,1257.1,86.5,1231.7,91.6z
		 M1244.3,189.1c10.9,19.6-13.9,19.1-19.4-6.2C1243.9,165.5,1264.5,179.4,1244.3,189.1z M995.1,6.1c0.6-2.6,1.4-4.6,2.3-6.1h10.6
		c2.6,4.9,3,13.9-2.9,23.9C979.2,23.6,973.6-0.5,995.1,6.1L995.1,6.1z M1107.8,436.5c1.1,25.8-22.8,32.7-17.2,10.9
		C1068.5,443.1,1084.9,424.5,1107.8,436.5z M797.8,0h24.7c0.4,1.9,0.6,3.9,0.7,6C804.7,17.7,789.2,7.2,797.8,0L797.8,0z
		 M1036.5,75.7c-22.2-13.3-14.8-37,0.3-20.4C1052.6,39.2,1059.1,63.1,1036.5,75.7z M878.7,0h27.5c0,2.4-0.3,4.9-0.9,7.7
		C889.5,12.7,878.6,5.7,878.7,0L878.7,0z M1094.1,197.5c-21.8,13.9-39.7-3.2-18.1-9.4C1068.5,166.9,1092.9,171.7,1094.1,197.5z
		 M1050.8,510.2c-17.1-14.6,6.4-22.7,20.4-1C1059.3,532.2,1035.2,526.4,1050.8,510.2z M1066.2,367.2c15.1,16.6-9.1,21.8-20.3-1.5
		C1060.4,344.3,1083.6,353,1066.2,367.2z M1047.8,303.7c-24.9-6.9-24.2-31.6-5.1-19.7C1053.4,264.3,1066.2,285.5,1047.8,303.7z
		 M1070.8,139.2c-22.3-13.1-15.1-36.9,0.2-20.4C1086.5,102.6,1093.3,126.4,1070.8,139.2z M706,138.4v-18.9
		C711.4,120,712.9,129.3,706,138.4z M1135.6,706.3h-27.1c-3-9.4,3.5-15.9,13.5-5.2C1132.1,690.4,1138.6,696.9,1135.6,706.3
		L1135.6,706.3z M1085.2,668.1c20.3-9.5,18,15.2-7.5,18.9C1061.7,666.7,1077,647.2,1085.2,668.1z M1412.2,513.9v22.3
		c-10.2,7.5-20.7,2-10.2-10.8C1387.5,515,1399,506.5,1412.2,513.9L1412.2,513.9z M842.6,119.7c18-13.4,20.8,11.2-3.5,20.1
		C819.2,123.2,830.2,101,842.6,119.7z M1412.3,119.6v18.9c-2,2.6-4.7,5.3-8.2,7.7c-23.2-11.3-18-35.5-1.4-20.3
		C1406.4,121.1,1409.7,119.4,1412.3,119.6L1412.3,119.6z M1412.3,383.8v18.1C1405.4,393.2,1406.7,384.1,1412.3,383.8z M822.5,706.3
		h-24.7c1.6-1.3,4-2.5,7.4-3.5C798.5,683.3,818.3,685.8,822.5,706.3z M1008,706.3h-10.6C1000.8,700.6,1005.5,701.5,1008,706.3z
		 M706,536.2v-22.3c3.3,1.9,6.8,4.8,10,8.9C713.3,529.2,709.7,533.5,706,536.2L706,536.2z M706,401.9v-18.1c2.5-0.1,5.8,1.5,9.7,5.7
		c15.8-16,22.2,8-0.5,20.4C711.2,407.5,708.2,404.7,706,401.9z M906.3,706.3h-27.5c0.1-3.2,3.6-6,11.6-6.1
		C888.9,680.2,906.4,686.7,906.3,706.3z M1243.8,706.3h-20.2c-9.1-12.2-2.2-24.7,10.1-11.7C1246,681.6,1252.9,694.1,1243.8,706.3z
		 M915.9,128.5c-10.1-23.8,9.7-38.6,12.2-16.3C950.3,108.4,941.6,131.6,915.9,128.5z M890.8,217.9c-25.3,5.5-36.1-16.8-13.7-15.1
		C877.5,180.3,898.7,193.2,890.8,217.9z M885.4,389.2c-15.8-20.5-0.3-39.8,7.7-18.9C913.6,361.1,911,385.8,885.4,389.2z
		 M945.1,167.7c14.5-17.2,22.8,6.2,1.1,20.4C923.2,176.4,928.9,152.2,945.1,167.7z M913.2,441.5c7.4-21.2,23.5-2.3,8.3,18.6
		C895.8,457.5,892.5,432.9,913.2,441.5z M856.6,638.3c14.4-17.2,22.8,6.1,1.2,20.3C834.7,647.1,840.3,622.9,856.6,638.3z
		 M864.8,316.6c2.8-25.7,27.4-28.9,18.7-8.2C904.6,315.9,885.6,331.9,864.8,316.6z M833.8,395c18.3-13,20.5,11.7-4,20
		C810.4,398,821.9,376,833.8,395z M842.3,49.6c12.3-18.8,23.3,3.4,3.6,20.1C821.5,60.9,824.3,36.2,842.3,49.6z M913.5,262.2
		c10-23.8,34.5-19.9,20.2-2.6C951.8,272.9,929.1,282.8,913.5,262.2z M847.7,476.5c11.8-19.1,23.4,2.8,4.2,20
		C827.3,488.4,829.3,463.6,847.7,476.5z M988.7,123.8c-21.2-14.8-12.2-37.9,1.7-20.3C1007.2,88.5,1012.1,112.8,988.7,123.8z
		 M914.8,52.5c11.9-19,23.4,2.9,4,20C894.3,64.2,896.5,39.5,914.8,52.5z M1078.8,603c-25.8-1.5-30.2-25.9-9.1-18.2
		C1076.2,563.3,1093.1,581.5,1078.8,603z M1013.2,232.8c-25.8-1.4-30.3-25.8-9.2-18.2C1010.4,193.1,1027.4,211.2,1013.2,232.8z
		 M900.4,574.8c-12.2-18.8,12.6-20,19.8,4.8C902.3,598.3,880.9,585.9,900.4,574.8z M1009.4,634.2c12.9-18.3,23.2,4.2,2.9,20.2
		C988.3,644.8,991.8,620.2,1009.4,634.2z M946.2,625.2c13.1-18.2,23.2,4.4,2.7,20.2C925,635.6,928.8,611,946.2,625.2z M982.8,333.7
		c14,17.6-10.6,21.1-20.2-2.9C978.6,310.4,1001.1,320.7,982.8,333.7z M996.3,554.8c-11.2-19.4,13.6-19.3,19.5,5.8
		C997,578.4,976.2,564.8,996.3,554.8z M966.6,485.5c-0.9-22.4,21-10.8,14.6,14.2C956.2,506.7,944.1,485.1,966.6,485.5z M995.7,415.6
		c11.9-19.1,23.4,2.9,4,20C975.2,427.3,977.3,402.6,995.7,415.6z M1311.2,1242.1c15.4-16.3,22.4,7.5,0,20.4
		C1288.8,1249.6,1295.8,1225.8,1311.2,1242.1z M1223.5,705.5h20.2c-2.3,3.1-5.6,6.1-10.1,8.7
		C1229.1,711.6,1225.8,708.5,1223.5,705.5z M1374.9,766.5c-22.4-12.9-15.4-36.7,0-20.4C1390.3,729.7,1397.3,753.5,1374.9,766.5z
		 M1108.6,705.5h27.1c-1.6,5-5.8,10.7-13.5,15.2C1114.4,716.2,1110.1,710.4,1108.6,705.5L1108.6,705.5z M821.9,1258.6
		c-19-12,3-23.4,20-3.9C833.5,1279.1,808.8,1276.8,821.9,1258.6z M758.8,767c-25.4-4.9-26.6-29.7-6.7-19.3
		C761.4,727.3,775.8,747.5,758.8,767z M1286.5,824.9c-22-13.6-14.3-37.2,0.6-20.4C1303,788.6,1309.3,812.6,1286.5,824.9z
		 M1312.1,742.8c-22.4-12.9-15.4-36.7,0-20.4C1327.5,706.1,1334.5,729.9,1312.1,742.8z M1379.6,1314.6c-22.4-12.9-15.4-36.7,0-20.4
		C1395,1277.9,1401.9,1301.7,1379.6,1314.6z M1272.8,1171.3c15.4-16.3,22.4,7.5,0,20.4C1250.4,1178.7,1257.4,1154.9,1272.8,1171.3z
		 M1267.6,1298.5c15.4-16.3,22.4,7.5,0,20.4C1245.2,1306,1252.2,1282.2,1267.6,1298.5z M1374.9,973.6c-22.4-12.9-15.4-36.7,0-20.4
		C1390.3,936.9,1397.2,960.7,1374.9,973.6z M716.1,1019.9c-8.1-24.5,13-37.6,13.6-15.2C752.1,1002.8,741.4,1025.2,716.1,1019.9z
		 M744.1,1275.3c20.1-10,18.4,14.8-7.1,19.1C720.5,1274.5,735.3,1254.6,744.1,1275.3z M729.4,1351.8c15.4-16.3,22.4,7.5,0,20.4
		C707,1359.2,713.9,1335.4,729.4,1351.8z M791.4,1332.2c-21.2-14.8-12.2-37.9,1.7-20.3C809.9,1296.9,814.8,1321.2,791.4,1332.2z
		 M801,918.4c-16.9-19.6-2.4-39.8,6.7-19.2C827.6,888.8,826.4,913.5,801,918.4z M769.6,1066.1c-0.5-25.8,23.5-32.1,17.5-10.5
		C809,1060.4,792.2,1078.6,769.6,1066.1z M754,1199.6c12.5-18.6,23.3,3.7,3.3,20.1C733.1,1210.7,736.1,1186,754,1199.6z M768.8,828
		c15.1-16.7,22.5,7,0.4,20.4C746.6,835.9,753.1,812,768.8,828z M743.3,919.2c-25.8,0.7-32.3-23.2-10.7-17.4
		C737.2,879.9,755.6,896.5,743.3,919.2z M802.4,993.1c-13.8-21.9,3.5-39.7,9.5-18C833.2,967.8,828.2,992.1,802.4,993.1z M780,1143.7
		c-24,9.5-38.3-10.8-16-12.7C760.8,1108.8,783.8,1118.1,780,1143.7z M1142.4,1101.9c3.6-25.6,28.3-28,18.9-7.6
		C1182.2,1102.4,1162.7,1117.8,1142.4,1101.9z M1295.5,1095c15.4-16.3,22.4,7.5,0,20.4C1273.1,1102.4,1280.1,1078.7,1295.5,1095z
		 M1149,789.9c-8.6-24.4,12.2-37.9,13.3-15.5C1184.6,772,1174.4,794.6,1149,789.9z M1123.8,1008.3c18.8-12.2,20,12.5-4.8,19.8
		C1100.3,1010.3,1112.8,988.8,1123.8,1008.3z M1128.7,1246.7c-0.3-22.4,21.2-10.3,14.2,14.6
		C1117.8,1267.7,1106.2,1245.8,1128.7,1246.7z M1142.2,851.7c18-13.4,20.7,11.3-3.6,20.1C1118.9,855.1,1129.9,832.9,1142.2,851.7z
		 M1219.8,1031.7c15.2-16.6,22.5,7.1,0.3,20.4C1197.5,1039.5,1204.1,1015.6,1219.8,1031.7z M1226.2,975.2
		c-22.2,13.2-39.6-4.5-17.8-10C1201.7,943.9,1225.9,949.4,1226.2,975.2z M1203.1,1238c15.4-16.3,22.4,7.5,0,20.4
		C1180.7,1245.5,1187.7,1221.7,1203.1,1238z M1145.9,933.8c-8.8-20.7,15.8-17.5,18.7,8.2C1143.7,957.3,1124.8,941.3,1145.9,933.8z
		 M1173.3,1174.6c6.6-21.5,23.4-3.2,9,18.3C1156.6,1191.2,1152.3,1166.8,1173.3,1174.6z M1333.2,876c-22.4-12.9-15.4-36.7,0-20.4
		C1348.6,839.3,1355.6,863.1,1333.2,876z M1153.5,1330.6c17.1-14.6,21.4,9.9-2.2,20.3C1130.5,1335.6,1140,1312.7,1153.5,1330.6z
		 M1354.7,1085.6c-22.4-12.9-15.4-36.7,0-20.4C1370.1,1048.8,1377.1,1072.6,1354.7,1085.6z M1300.3,1018.1
		c-22.4-12.9-15.4-36.7,0-20.4C1315.7,981.4,1322.7,1005.2,1300.3,1018.1z M1296,935.4c-22.9-12.1-16.8-36.1-0.8-20.4
		C1310,898.1,1317.9,921.7,1296,935.4z M1345,1374.5c-22.4-12.9-15.4-36.7,0-20.4C1360.4,1337.8,1367.4,1361.6,1345,1374.5z
		 M1216.7,1338.7c-22.4-12.9-15.4-36.7,0-20.4C1232.1,1301.9,1239.1,1325.7,1216.7,1338.7z M1222.6,1126.9
		c-19.6-16.8-8.4-38.9,3.8-20C1244.5,1093.6,1247,1118.3,1222.6,1126.9z M1358.3,1178.5c-25.7,2.7-34.1-20.6-12-16.5
		C1349.2,1139.7,1368.8,1154.8,1358.3,1178.5z M1231.7,797c-17.1-19.4-2.9-39.7,6.5-19.3C1258,767.1,1257.1,791.9,1231.7,797z
		 M1244.3,894.6c10.9,19.6-13.9,19.1-19.4-6.2C1243.9,871,1264.5,884.9,1244.3,894.6z M995.1,711.6c0.6-2.6,1.4-4.6,2.3-6.1h10.6
		c2.6,4.9,3,13.9-2.9,23.9C979.2,729.1,973.6,704.9,995.1,711.6L995.1,711.6z M1107.8,1141.9c1.1,25.8-22.8,32.7-17.2,10.9
		C1068.5,1148.6,1084.9,1130,1107.8,1141.9z M797.8,705.5h24.7c0.4,1.9,0.6,3.9,0.7,6C804.7,723.1,789.2,712.6,797.8,705.5
		L797.8,705.5z M1036.5,781.2c-22.2-13.3-14.8-37,0.3-20.4C1052.6,744.7,1059.1,768.6,1036.5,781.2z M878.7,705.5h27.5
		c0,2.4-0.3,5-0.9,7.7C889.5,718.2,878.6,711.2,878.7,705.5L878.7,705.5z M1094.1,902.9c-21.8,13.9-39.7-3.2-18.1-9.4
		C1068.5,872.4,1092.9,877.1,1094.1,902.9z M1050.8,1215.7c-17.1-14.6,6.4-22.7,20.4-1C1059.3,1237.7,1035.2,1231.8,1050.8,1215.7z
		 M1066.2,1072.7c15.1,16.6-9.1,21.8-20.3-1.5C1060.4,1049.8,1083.6,1058.5,1066.2,1072.7z M1047.8,1009.2
		c-24.9-6.9-24.2-31.7-5.1-19.7C1053.4,969.8,1066.2,991,1047.8,1009.2z M1070.8,844.6c-22.3-13.1-15.1-36.9,0.2-20.4
		C1086.5,808,1093.3,831.9,1070.8,844.6z M706,843.9V825C711.4,825.5,712.9,834.8,706,843.9z M1135.6,1411.7h-27.1
		c-3-9.4,3.5-15.9,13.5-5.2C1132.1,1395.8,1138.6,1402.3,1135.6,1411.7L1135.6,1411.7z M1085.2,1373.5c20.3-9.5,18,15.2-7.5,18.9
		C1061.7,1372.2,1077,1352.7,1085.2,1373.5z M1412.2,1219.4v22.3c-10.2,7.4-20.7,2-10.2-10.8C1387.5,1220.4,1399,1212,1412.2,1219.4
		z M842.6,825.2c18-13.4,20.8,11.2-3.5,20.1C819.2,828.7,830.2,806.4,842.6,825.2z M1412.2,825.1v18.9c-2,2.6-4.7,5.3-8.2,7.7
		c-23.2-11.3-18-35.5-1.4-20.3C1406.3,826.6,1409.7,824.9,1412.2,825.1L1412.2,825.1z M1412.2,1089.3v18.1
		C1405.4,1098.7,1406.7,1089.6,1412.2,1089.3z M822.5,1411.7h-24.7c1.6-1.3,4-2.5,7.4-3.5C798.5,1388.8,818.3,1391.3,822.5,1411.7z
		 M1008,1411.7h-10.6C1000.7,1406.1,1005.4,1407,1008,1411.7z M706,1241.7v-22.3c3.3,1.9,6.8,4.8,10,8.9
		C713.3,1234.6,709.7,1239,706,1241.7L706,1241.7z M706,1107.4v-18.1c2.5-0.2,5.8,1.5,9.7,5.7c15.8-16,22.2,8-0.5,20.4
		C711.2,1112.9,708.2,1110.2,706,1107.4z M906.3,1411.7h-27.5c0.1-3.2,3.6-6,11.6-6.1C888.9,1385.7,906.4,1392.2,906.3,1411.7z
		 M1243.8,1411.7h-20.2c-9.1-12.2-2.2-24.7,10.1-11.7C1245.9,1387,1252.9,1399.6,1243.8,1411.7z M915.9,834
		c-10.1-23.8,9.7-38.6,12.2-16.3C950.3,813.9,941.6,837.1,915.9,834z M890.8,923.3c-25.3,5.5-36.1-16.8-13.7-15.1
		C877.5,885.8,898.7,898.7,890.8,923.3z M885.4,1094.7c-15.8-20.4-0.3-39.8,7.7-18.9C913.6,1066.6,911,1091.3,885.4,1094.7z
		 M945.1,873.2c14.5-17.2,22.8,6.2,1.1,20.4C923.2,881.8,928.9,857.7,945.1,873.2z M913.2,1147c7.4-21.2,23.5-2.3,8.3,18.6
		C895.8,1162.9,892.5,1138.4,913.2,1147z M856.6,1343.8c14.4-17.2,22.8,6.1,1.2,20.3C834.7,1352.6,840.3,1328.4,856.6,1343.8z
		 M864.8,1022.1c2.8-25.7,27.4-28.9,18.7-8.2C904.6,1021.4,885.6,1037.3,864.8,1022.1z M833.8,1100.5c18.3-13,20.5,11.7-4,20
		C810.4,1103.5,821.9,1081.5,833.8,1100.5z M842.3,755.1c12.3-18.8,23.3,3.4,3.6,20.1C821.5,766.4,824.3,741.7,842.3,755.1z
		 M913.5,967.7c10-23.8,34.5-19.9,20.2-2.6C951.8,978.4,929.1,988.3,913.5,967.7z M847.7,1182c11.8-19.1,23.4,2.8,4.2,20
		C827.3,1193.9,829.3,1169.1,847.7,1182z M988.7,829.2c-21.2-14.8-12.2-37.9,1.7-20.3C1007.2,794,1012.1,818.3,988.7,829.2z
		 M914.8,758c11.9-19,23.4,2.9,4,20C894.3,769.7,896.5,745,914.8,758z M1078.8,1308.5c-25.8-1.5-30.2-25.9-9.1-18.2
		C1076.2,1268.8,1093.1,1287,1078.8,1308.5z M1013.2,938.3c-25.8-1.4-30.3-25.8-9.2-18.2C1010.4,898.6,1027.4,916.7,1013.2,938.3z
		 M900.4,1280.3c-12.2-18.8,12.6-20,19.8,4.8C902.3,1303.8,880.9,1291.4,900.4,1280.3z M1009.3,1339.7c12.9-18.3,23.2,4.2,2.9,20.2
		C988.2,1350.3,991.8,1325.7,1009.3,1339.7z M946.2,1330.6c13.1-18.2,23.2,4.4,2.7,20.2C925,1341,928.8,1316.5,946.2,1330.6z
		 M982.8,1039.2c14,17.6-10.6,21.1-20.2-2.9C978.6,1015.9,1001.1,1026.2,982.8,1039.2z M996.3,1260.3c-11.2-19.4,13.6-19.3,19.5,5.8
		C997,1283.8,976.2,1270.3,996.3,1260.3z M966.6,1191c-0.9-22.4,21-10.8,14.6,14.2C956.2,1212.2,944.1,1190.6,966.6,1191z
		 M995.7,1121c11.9-19.1,23.4,2.9,4,20C975.2,1132.8,977.3,1108.1,995.7,1121z M1311.2,1947.6c15.4-16.3,22.4,7.5,0,20.4
		C1288.8,1955.1,1295.8,1931.3,1311.2,1947.6z M1223.5,1411h20.2c-2.3,3.1-5.6,6.1-10.1,8.7C1229.1,1417.1,1225.8,1414,1223.5,1411z
		 M1374.9,1471.9c-22.4-12.9-15.4-36.7,0-20.4C1390.3,1435.2,1397.3,1459,1374.9,1471.9z M1108.6,1411h27.1
		c-1.6,5-5.8,10.7-13.5,15.2C1114.4,1421.7,1110.1,1415.9,1108.6,1411L1108.6,1411z M821.9,1964.1c-19-12,3-23.4,20-3.9
		C833.5,1984.6,808.8,1982.3,821.9,1964.1z M758.8,1472.5c-25.4-4.9-26.6-29.7-6.7-19.3C761.4,1432.8,775.8,1453,758.8,1472.5z
		 M1286.5,1530.3c-22-13.6-14.3-37.2,0.6-20.4C1303,1494.1,1309.3,1518.1,1286.5,1530.3z M1312.1,1448.3
		c-22.4-12.9-15.4-36.7,0-20.4C1327.5,1411.6,1334.5,1435.4,1312.1,1448.3z M1379.6,2020.1c-22.4-12.9-15.4-36.7,0-20.4
		C1395,1983.4,1401.9,2007.2,1379.6,2020.1z M1272.8,1876.7c15.4-16.3,22.4,7.5,0,20.4C1250.4,1884.2,1257.4,1860.4,1272.8,1876.7z
		 M1267.6,2004c15.4-16.3,22.4,7.5,0,20.4C1245.2,2011.5,1252.2,1987.7,1267.6,2004z M1374.9,1679.1c-22.4-12.9-15.4-36.7,0-20.4
		C1390.3,1642.4,1397.2,1666.2,1374.9,1679.1z M716.1,1725.4c-8.1-24.6,13-37.6,13.6-15.2C752.1,1708.3,741.4,1730.7,716.1,1725.4z
		 M744.1,1980.8c20.1-10,18.4,14.8-7.1,19.1C720.5,1980,735.3,1960.1,744.1,1980.8z M729.4,2057.2c15.4-16.3,22.4,7.5,0,20.4
		C707,2064.7,713.9,2040.9,729.4,2057.2z M791.4,2037.7c-21.2-14.8-12.2-37.9,1.7-20.3C809.9,2002.4,814.8,2026.7,791.4,2037.7z
		 M801,1623.8c-16.9-19.6-2.4-39.8,6.7-19.2C827.6,1594.2,826.4,1619,801,1623.8z M769.6,1771.6c-0.5-25.8,23.5-32.1,17.5-10.5
		C809,1765.8,792.2,1784.1,769.6,1771.6z M754,1905.1c12.5-18.6,23.3,3.7,3.3,20.1C733.1,1916.1,736.1,1891.5,754,1905.1z
		 M768.8,1533.5c15.1-16.7,22.5,7,0.4,20.4C746.6,1541.4,753.1,1517.5,768.8,1533.5z M743.3,1624.7c-25.8,0.7-32.3-23.2-10.7-17.4
		C737.2,1585.4,755.6,1602,743.3,1624.7z M802.4,1698.6c-13.8-21.9,3.5-39.7,9.5-18C833.2,1673.3,828.2,1697.6,802.4,1698.6z
		 M780,1849.2c-24,9.5-38.3-10.8-16-12.7C760.8,1814.3,783.8,1823.6,780,1849.2z M1142.4,1807.4c3.6-25.6,28.3-28,18.9-7.6
		C1182.2,1807.9,1162.7,1823.3,1142.4,1807.4z M1295.5,1800.5c15.4-16.3,22.4,7.5,0,20.4C1273.1,1807.9,1280.1,1784.1,1295.5,1800.5
		z M1149,1495.4c-8.6-24.4,12.2-37.9,13.3-15.5C1184.6,1477.5,1174.4,1500.1,1149,1495.4z M1123.8,1713.8
		c18.8-12.2,20,12.6-4.8,19.8C1100.3,1715.8,1112.8,1694.3,1123.8,1713.8z M1128.7,1952.2c-0.3-22.4,21.2-10.3,14.2,14.6
		C1117.8,1973.2,1106.2,1951.2,1128.7,1952.2z M1142.2,1557.1c18-13.4,20.7,11.3-3.6,20.1
		C1118.9,1560.6,1129.9,1538.4,1142.2,1557.1z M1219.8,1737.1c15.2-16.6,22.5,7.1,0.3,20.4C1197.5,1744.9,1204.1,1721,1219.8,1737.1
		z M1226.2,1680.7c-22.2,13.2-39.6-4.5-17.8-10C1201.7,1649.3,1225.9,1654.9,1226.2,1680.7z M1203.1,1943.5
		c15.4-16.3,22.4,7.5,0,20.4C1180.7,1951,1187.7,1927.2,1203.1,1943.5z M1145.9,1639.3c-8.8-20.7,15.8-17.5,18.7,8.2
		C1143.7,1662.8,1124.8,1646.8,1145.9,1639.3z M1173.3,1880.1c6.6-21.5,23.4-3.2,9,18.3C1156.6,1896.7,1152.3,1872.2,1173.3,1880.1z
		 M1333.2,1581.5c-22.4-12.9-15.4-36.7,0-20.4C1348.6,1544.8,1355.6,1568.6,1333.2,1581.5z M1153.5,2036.1
		c17.1-14.6,21.4,9.9-2.2,20.3C1130.5,2041.1,1140,2018.2,1153.5,2036.1L1153.5,2036.1z M1354.7,1791.1c-22.4-12.9-15.4-36.7,0-20.4
		C1370.1,1754.3,1377.1,1778.1,1354.7,1791.1z M1300.3,1723.6c-22.4-12.9-15.4-36.7,0-20.4
		C1315.7,1686.9,1322.7,1710.7,1300.3,1723.6z M1296,1640.9c-22.9-12.1-16.8-36.1-0.8-20.4C1310,1603.6,1317.9,1627.2,1296,1640.9z
		 M1345,2080c-22.4-12.9-15.4-36.7,0-20.4C1360.4,2043.3,1367.4,2067.1,1345,2080z M1216.7,2044.1c-22.4-12.9-15.4-36.7,0-20.4
		C1232.1,2007.4,1239.1,2031.2,1216.7,2044.1z M1222.6,1832.4c-19.6-16.8-8.4-38.9,3.8-20C1244.5,1799.1,1247,1823.8,1222.6,1832.4z
		 M1358.3,1883.9c-25.7,2.7-34.1-20.6-12-16.5C1349.2,1845.2,1368.8,1860.3,1358.3,1883.9z M1231.7,1502.5
		c-17.1-19.4-2.9-39.7,6.5-19.3C1258,1472.6,1257.1,1497.4,1231.7,1502.5z M1244.3,1600.1c10.9,19.6-13.9,19.1-19.4-6.2
		C1243.9,1576.5,1264.5,1590.4,1244.3,1600.1z M995.1,1417.1c0.6-2.6,1.4-4.6,2.3-6.1h10.6c2.6,4.9,3,13.9-2.9,23.9
		C979.2,1434.6,973.6,1410.4,995.1,1417.1L995.1,1417.1z M1107.8,1847.4c1.1,25.8-22.8,32.7-17.2,10.9
		C1068.5,1854.1,1084.9,1835.5,1107.8,1847.4z M797.8,1411h24.7c0.4,1.9,0.6,3.9,0.7,6C804.7,1428.6,789.2,1418.1,797.8,1411
		L797.8,1411z M1036.5,1486.7c-22.2-13.3-14.8-37,0.3-20.4C1052.6,1450.2,1059.1,1474.1,1036.5,1486.7z M878.7,1411h27.5
		c0,2.4-0.3,4.9-0.9,7.7C889.5,1423.6,878.6,1416.7,878.7,1411L878.7,1411z M1094.1,1608.4c-21.8,13.9-39.7-3.2-18.1-9.4
		C1068.5,1577.9,1092.9,1582.6,1094.1,1608.4z M1050.8,1921.2c-17.1-14.6,6.4-22.7,20.4-1
		C1059.3,1943.1,1035.2,1937.3,1050.8,1921.2z M1066.2,1778.1c15.1,16.6-9.1,21.8-20.3-1.5C1060.4,1755.3,1083.6,1764,1066.2,1778.1
		z M1047.8,1714.7c-24.9-6.9-24.2-31.7-5.1-19.7C1053.4,1675.2,1066.2,1696.5,1047.8,1714.7z M1070.8,1550.1
		c-22.3-13.1-15.1-36.9,0.2-20.4C1086.5,1513.5,1093.3,1537.4,1070.8,1550.1z M706,1549.4v-18.9C711.4,1531,712.9,1540.3,706,1549.4
		z M1135.6,2117.2h-27.1c-3-9.4,3.5-15.9,13.5-5.2C1132.1,2101.3,1138.6,2107.8,1135.6,2117.2L1135.6,2117.2z M1085.2,2079
		c20.3-9.5,18,15.2-7.5,18.9C1061.7,2077.7,1077,2058.2,1085.2,2079z M1412.2,1924.9v22.3c-10.2,7.4-20.7,2-10.2-10.8
		C1387.5,1925.9,1399,1917.4,1412.2,1924.9z M842.6,1530.7c18-13.4,20.8,11.2-3.5,20.1C819.2,1534.2,830.2,1511.9,842.6,1530.7z
		 M1412.2,1530.5v18.9c-2,2.6-4.7,5.3-8.2,7.7c-23.2-11.3-18-35.5-1.4-20.3C1406.3,1532.1,1409.7,1530.3,1412.2,1530.5
		L1412.2,1530.5z M1412.2,1794.8v18.1C1405.4,1804.2,1406.7,1795.1,1412.2,1794.8z M822.5,2117.2h-24.7c1.6-1.3,4-2.5,7.4-3.5
		C798.5,2094.3,818.3,2096.8,822.5,2117.2z M1008,2117.2h-10.6C1000.7,2111.6,1005.4,2112.5,1008,2117.2z M706,1947.2v-22.3
		c3.3,1.9,6.8,4.8,10,8.9C713.3,1940.1,709.7,1944.5,706,1947.2L706,1947.2z M706,1812.9v-18.1c2.5-0.2,5.8,1.5,9.7,5.7
		c15.8-16,22.2,8-0.5,20.4C711.2,1818.4,708.2,1815.7,706,1812.9z M906.3,2117.2h-27.5c0.1-3.2,3.6-6,11.6-6.1
		C888.9,2091.2,906.4,2097.7,906.3,2117.2z M1243.8,2117.2h-20.2c-9.1-12.2-2.2-24.7,10.1-11.7
		C1245.9,2092.5,1252.9,2105.1,1243.8,2117.2z M915.9,1539.5c-10.1-23.8,9.7-38.6,12.2-16.3C950.3,1519.4,941.6,1542.6,915.9,1539.5
		z M890.8,1628.8c-25.3,5.5-36.1-16.8-13.7-15.1C877.5,1591.3,898.7,1604.2,890.8,1628.8z M885.4,1800.2
		c-15.8-20.4-0.3-39.8,7.7-18.9C913.6,1772.1,911,1796.8,885.4,1800.2z M945.1,1578.7c14.5-17.2,22.8,6.2,1.1,20.4
		C923.2,1587.3,928.9,1563.2,945.1,1578.7z M913.2,1852.5c7.4-21.2,23.5-2.3,8.3,18.6C895.8,1868.4,892.5,1843.9,913.2,1852.5z
		 M856.6,2049.3c14.4-17.2,22.8,6.1,1.2,20.4C834.7,2058.1,840.3,2033.9,856.6,2049.3z M864.8,1727.6c2.8-25.7,27.4-28.9,18.7-8.2
		C904.6,1726.9,885.6,1742.8,864.8,1727.6z M833.8,1806c18.3-13,20.5,11.7-4,20C810.4,1809,821.9,1787,833.8,1806z M842.3,1460.6
		c12.3-18.8,23.3,3.4,3.6,20.1C821.5,1471.9,824.3,1447.2,842.3,1460.6z M913.5,1673.2c10-23.8,34.5-19.9,20.2-2.6
		C951.8,1683.8,929.1,1693.8,913.5,1673.2z M847.7,1887.5c11.8-19.1,23.4,2.8,4.2,20C827.3,1899.3,829.3,1874.6,847.7,1887.5z
		 M988.7,1534.7c-21.2-14.8-12.2-37.9,1.7-20.3C1007.2,1499.5,1012.1,1523.8,988.7,1534.7z M914.8,1463.5c11.9-19,23.4,2.9,4,20
		C894.3,1475.2,896.5,1450.5,914.8,1463.5z M1078.8,2014c-25.8-1.5-30.2-25.9-9.1-18.2C1076.2,1974.3,1093.1,1992.5,1078.8,2014z
		 M1013.2,1643.8c-25.8-1.4-30.3-25.8-9.2-18.2C1010.4,1604.1,1027.4,1622.2,1013.2,1643.8z M900.4,1985.8
		c-12.2-18.8,12.6-20,19.8,4.8C902.3,2009.3,880.9,1996.9,900.4,1985.8z M1009.3,2045.2c12.9-18.3,23.2,4.2,2.9,20.2
		C988.2,2055.8,991.8,2031.2,1009.3,2045.2L1009.3,2045.2z M946.2,2036.1c13.1-18.2,23.2,4.4,2.7,20.2
		C925,2046.5,928.8,2022,946.2,2036.1L946.2,2036.1z M982.8,1744.7c14,17.6-10.6,21.1-20.2-2.9
		C978.6,1721.4,1001.1,1731.7,982.8,1744.7z M996.3,1965.8c-11.2-19.4,13.6-19.3,19.5,5.8C997,1989.3,976.2,1975.8,996.3,1965.8z
		 M966.6,1896.5c-0.9-22.4,21-10.8,14.6,14.2C956.2,1917.7,944.1,1896.1,966.6,1896.5z M995.7,1826.5c11.9-19.1,23.4,2.9,4,20
		C975.2,1838.3,977.3,1813.6,995.7,1826.5z M2017.2,536.7c15.4-16.3,22.4,7.5,0,20.4C1994.8,544.2,2001.8,520.4,2017.2,536.7z
		 M1929.5,0h20.2c-2.3,3.1-5.6,6.1-10.1,8.7C1935.1,6.1,1931.8,3.1,1929.5,0z M2080.9,61c-22.4-12.9-15.4-36.7,0-20.4
		C2096.3,24.3,2103.2,48.1,2080.9,61z M1814.6,0h27.1c-1.6,5-5.8,10.7-13.5,15.2C1820.4,10.7,1816.1,5,1814.6,0L1814.6,0z
		 M1527.9,553.1c-19-12,3-23.4,20-3.9C1539.5,573.7,1514.8,571.4,1527.9,553.1z M1464.8,61.5c-25.4-4.9-26.6-29.7-6.7-19.3
		C1467.4,21.8,1481.8,42,1464.8,61.5z M1992.5,119.4c-22-13.6-14.3-37.2,0.6-20.4C2009,83.1,2015.3,107.1,1992.5,119.4z
		 M2018.1,37.3c-22.4-12.9-15.4-36.7,0-20.4C2033.5,0.6,2040.5,24.4,2018.1,37.3z M2085.6,609.2c-22.4-12.9-15.4-36.7,0-20.4
		C2101,572.4,2107.9,596.2,2085.6,609.2z M1978.8,465.8c15.4-16.3,22.4,7.5,0,20.4C1956.4,473.2,1963.4,449.4,1978.8,465.8z
		 M1973.6,593c15.4-16.3,22.4,7.5,0,20.4C1951.2,600.5,1958.2,576.7,1973.6,593z M2080.9,268.1c-22.4-12.9-15.4-36.7,0-20.4
		C2096.3,231.4,2103.2,255.2,2080.9,268.1z M1422.1,314.4c-8.1-24.5,13-37.6,13.6-15.2C1458.1,297.3,1447.4,319.7,1422.1,314.4z
		 M1450.1,569.8c20.1-10,18.4,14.8-7.1,19.1C1426.5,569,1441.3,549.2,1450.1,569.8z M1435.4,646.3c15.4-16.3,22.4,7.5,0,20.4
		C1413,653.8,1419.9,630,1435.4,646.3z M1497.4,626.7c-21.2-14.8-12.2-37.9,1.7-20.3C1515.9,591.5,1520.8,615.8,1497.4,626.7z
		 M1507,212.9c-16.9-19.6-2.4-39.8,6.7-19.2C1533.6,183.3,1532.4,208.1,1507,212.9z M1475.6,360.6c-0.5-25.8,23.5-32.1,17.5-10.5
		C1515,354.9,1498.2,373.1,1475.6,360.6z M1460,494.2c12.5-18.6,23.3,3.7,3.3,20.1C1439.1,505.2,1442.1,480.6,1460,494.2z
		 M1474.8,122.5c15.1-16.7,22.5,7,0.4,20.4C1452.6,130.4,1459.1,106.5,1474.8,122.5z M1449.3,213.8c-25.8,0.7-32.3-23.2-10.7-17.4
		C1443.2,174.4,1461.6,191,1449.3,213.8z M1508.4,287.6c-13.8-21.9,3.5-39.7,9.5-18C1539.2,262.3,1534.2,286.6,1508.4,287.6z
		 M1486,438.2c-24,9.5-38.3-10.8-16-12.7C1466.8,403.3,1489.8,412.7,1486,438.2z M1848.4,396.4c3.6-25.6,28.3-28,18.9-7.6
		C1888.2,397,1868.7,412.3,1848.4,396.4z M2001.5,389.5c15.4-16.3,22.4,7.5,0,20.4C1979.1,397,1986.1,373.2,2001.5,389.5
		L2001.5,389.5z M1855,84.4c-8.6-24.4,12.2-37.9,13.3-15.5C1890.6,66.5,1880.4,89.1,1855,84.4z M1829.8,302.9
		c18.8-12.2,20,12.5-4.8,19.8C1806.3,304.8,1818.8,283.3,1829.8,302.9z M1834.7,541.2c-0.3-22.5,21.2-10.3,14.2,14.6
		C1823.8,562.2,1812.2,540.3,1834.7,541.2z M1848.2,146.2c18-13.4,20.7,11.3-3.6,20.1C1824.9,149.6,1835.9,127.4,1848.2,146.2z
		 M1925.8,326.2c15.2-16.6,22.5,7.1,0.3,20.4C1903.5,334,1910.1,310.1,1925.8,326.2z M1932.2,269.8c-22.2,13.2-39.6-4.5-17.8-10
		C1907.7,238.4,1931.9,243.9,1932.2,269.8z M1909.1,532.6c15.4-16.3,22.4,7.5,0,20.4C1886.7,540,1893.7,516.2,1909.1,532.6z
		 M1851.9,228.3c-8.8-20.7,15.8-17.5,18.7,8.2C1849.7,251.8,1830.8,235.8,1851.9,228.3z M1879.3,469.1c6.6-21.5,23.4-3.2,9,18.3
		C1862.6,485.7,1858.3,461.3,1879.3,469.1z M2039.2,170.5c-22.4-12.9-15.4-36.7,0-20.4C2054.6,133.8,2061.6,157.6,2039.2,170.5z
		 M1859.5,625.1c17.1-14.6,21.4,9.9-2.2,20.3C1836.5,630.1,1846,607.2,1859.5,625.1z M2060.7,380.1c-22.4-12.9-15.4-36.7,0-20.4
		C2076.1,343.4,2083.1,367.2,2060.7,380.1z M2006.3,312.7c-22.4-12.9-15.4-36.7,0-20.4C2021.7,275.9,2028.7,299.7,2006.3,312.7z
		 M2002,230c-22.9-12.1-16.8-36.1-0.8-20.4C2016,192.7,2023.9,216.2,2002,230z M2051,669c-22.4-12.9-15.4-36.7,0-20.4
		C2066.4,632.3,2073.4,656.1,2051,669z M1922.7,633.2c-22.4-12.9-15.4-36.7,0-20.4C1938.1,596.5,1945.1,620.3,1922.7,633.2z
		 M1928.6,421.4c-19.6-16.8-8.4-38.9,3.8-20C1950.5,388.1,1953,412.8,1928.6,421.4z M2064.3,473c-25.7,2.7-34.1-20.6-12-16.5
		C2055.2,434.2,2074.8,449.4,2064.3,473z M1937.7,91.6c-17.1-19.4-2.9-39.7,6.5-19.3C1964,61.7,1963.1,86.5,1937.7,91.6z
		 M1950.3,189.1c10.9,19.6-13.9,19.1-19.4-6.2C1949.9,165.5,1970.5,179.4,1950.3,189.1z M1701.1,6.1c0.6-2.6,1.4-4.6,2.3-6.1h10.6
		c2.6,4.9,3,13.9-2.9,23.9C1685.2,23.6,1679.6-0.5,1701.1,6.1z M1813.8,436.5c1.1,25.8-22.8,32.7-17.2,10.9
		C1774.5,443.1,1790.9,424.5,1813.8,436.5z M1503.8,0h24.7c0.4,1.9,0.6,3.9,0.7,6C1510.7,17.7,1495.2,7.2,1503.8,0z M1742.6,75.7
		c-22.2-13.3-14.8-37,0.3-20.4C1758.6,39.2,1765.2,63.1,1742.6,75.7z M1584.7,0h27.6c0,2.4-0.3,4.9-0.9,7.7
		C1595.6,12.7,1584.6,5.7,1584.7,0z M1800.1,197.5c-21.8,13.9-39.7-3.2-18.1-9.4C1774.5,166.9,1798.9,171.7,1800.1,197.5z
		 M1756.8,510.2c-17.1-14.6,6.4-22.7,20.4-1C1765.3,532.2,1741.2,526.4,1756.8,510.2z M1772.2,367.2c15.1,16.6-9.1,21.8-20.3-1.5
		C1766.4,344.3,1789.6,353,1772.2,367.2z M1753.8,303.7c-24.9-6.9-24.2-31.6-5.1-19.7C1759.4,264.3,1772.2,285.5,1753.8,303.7z
		 M1776.8,139.2c-22.3-13.1-15.1-36.9,0.2-20.4C1792.5,102.6,1799.3,126.4,1776.8,139.2z M1412,138.4v-18.9
		C1417.4,120,1418.9,129.3,1412,138.4z M1841.6,706.3h-27.1c-3-9.4,3.5-15.9,13.5-5.2C1838.1,690.4,1844.6,696.9,1841.6,706.3
		L1841.6,706.3z M1791.2,668.1c20.3-9.5,18,15.2-7.5,18.9C1767.7,666.7,1783,647.2,1791.2,668.1z M2118.2,513.9v22.3
		c-10.2,7.5-20.7,2-10.2-10.8C2093.5,515,2105,506.5,2118.2,513.9L2118.2,513.9z M1548.6,119.7c18-13.4,20.8,11.2-3.5,20.1
		C1525.2,123.2,1536.2,101,1548.6,119.7z M2118.3,119.6v18.9c-2,2.6-4.7,5.3-8.2,7.7c-23.2-11.3-18-35.5-1.4-20.3
		C2112.4,121.1,2115.7,119.4,2118.3,119.6L2118.3,119.6z M2118.3,383.8v18.1C2111.4,393.2,2112.7,384.1,2118.3,383.8z M1528.5,706.3
		h-24.7c1.6-1.3,4-2.5,7.4-3.5C1504.5,683.3,1524.3,685.8,1528.5,706.3z M1714,706.3h-10.6C1706.8,700.6,1711.5,701.5,1714,706.3z
		 M1412,536.2v-22.3c3.3,1.9,6.8,4.8,10,8.9C1419.3,529.2,1415.7,533.5,1412,536.2L1412,536.2z M1412,401.9v-18.1
		c2.5-0.1,5.8,1.5,9.7,5.7c15.8-16,22.2,8-0.5,20.4C1417.2,407.5,1414.2,404.7,1412,401.9L1412,401.9z M1612.3,706.3h-27.6
		c0.1-3.2,3.6-6,11.6-6.1C1594.9,680.2,1612.4,686.7,1612.3,706.3z M1949.8,706.3h-20.2c-9.1-12.2-2.2-24.7,10.1-11.7
		C1952,681.6,1958.9,694.1,1949.8,706.3z M1621.9,128.5c-10.1-23.8,9.7-38.6,12.2-16.3C1656.3,108.4,1647.6,131.6,1621.9,128.5z
		 M1596.8,217.9c-25.3,5.5-36.1-16.8-13.7-15.1C1583.5,180.3,1604.7,193.3,1596.8,217.9z M1591.4,389.3
		c-15.8-20.5-0.3-39.8,7.7-18.9C1619.6,361.1,1617,385.8,1591.4,389.3z M1651.2,167.7c14.5-17.2,22.8,6.2,1.1,20.4
		C1629.2,176.4,1634.9,152.2,1651.2,167.7z M1619.3,441.5c7.4-21.2,23.5-2.3,8.3,18.6C1601.9,457.5,1598.6,432.9,1619.3,441.5z
		 M1562.6,638.3c14.4-17.2,22.8,6.1,1.2,20.3C1540.8,647.1,1546.3,622.9,1562.6,638.3z M1570.8,316.6c2.8-25.7,27.4-28.9,18.7-8.2
		C1610.6,315.9,1591.6,331.9,1570.8,316.6z M1539.8,395c18.3-13,20.5,11.7-4,20C1516.4,398,1527.9,376,1539.8,395z M1548.3,49.6
		c12.3-18.8,23.3,3.4,3.6,20.1C1527.6,60.9,1530.3,36.2,1548.3,49.6z M1619.5,262.2c10-23.8,34.5-19.9,20.2-2.6
		C1657.9,272.9,1635.1,282.8,1619.5,262.2z M1553.7,476.5c11.8-19.1,23.4,2.8,4.2,20C1533.3,488.4,1535.3,463.7,1553.7,476.5z
		 M1694.7,123.8c-21.2-14.8-12.2-37.9,1.7-20.3C1713.2,88.5,1718.2,112.8,1694.7,123.8z M1620.8,52.5c11.9-19,23.4,2.9,4,20
		C1600.3,64.2,1602.5,39.5,1620.8,52.5z M1784.8,603.1c-25.8-1.5-30.2-25.9-9.1-18.2C1782.2,563.3,1799.1,581.5,1784.8,603.1z
		 M1719.2,232.8c-25.8-1.4-30.3-25.8-9.2-18.2C1716.4,193.1,1733.4,211.2,1719.2,232.8z M1606.4,574.8c-12.2-18.8,12.6-20,19.8,4.8
		C1608.4,598.3,1586.9,585.9,1606.4,574.8z M1715.4,634.3c12.9-18.3,23.2,4.2,2.9,20.2C1694.3,644.8,1697.8,620.3,1715.4,634.3z
		 M1652.2,625.2c13.1-18.2,23.2,4.4,2.7,20.2C1631,635.6,1634.8,611,1652.2,625.2z M1688.8,333.7c14,17.6-10.6,21.1-20.2-2.9
		C1684.6,310.5,1707.1,320.7,1688.8,333.7z M1702.3,554.8c-11.2-19.4,13.6-19.3,19.5,5.8C1703,578.4,1682.2,564.9,1702.3,554.8z
		 M1672.6,485.5c-0.9-22.4,21-10.8,14.6,14.2C1662.3,506.8,1650.1,485.1,1672.6,485.5z M1701.7,415.6c11.9-19.1,23.4,2.9,4,20
		C1681.2,427.3,1683.3,402.6,1701.7,415.6z M2017.2,1242.1c15.4-16.3,22.4,7.5,0,20.4C1994.8,1249.6,2001.8,1225.8,2017.2,1242.1z
		 M1929.5,705.5h20.2c-2.3,3.1-5.6,6.1-10.1,8.7C1935.2,711.6,1931.8,708.6,1929.5,705.5z M2080.9,766.5
		c-22.4-12.9-15.4-36.7,0-20.4C2096.3,729.7,2103.3,753.5,2080.9,766.5z M1814.6,705.5h27.1c-1.6,5-5.8,10.7-13.5,15.2
		C1820.4,716.2,1816.1,710.5,1814.6,705.5L1814.6,705.5z M1527.9,1258.6c-19-12,3-23.4,20-3.9
		C1539.5,1279.1,1514.8,1276.9,1527.9,1258.6z M1464.8,767c-25.4-4.9-26.6-29.7-6.7-19.3C1467.4,727.3,1481.8,747.5,1464.8,767z
		 M1992.5,824.9c-22-13.6-14.3-37.2,0.6-20.4C2009,788.6,2015.3,812.6,1992.5,824.9z M2018.1,742.8c-22.4-12.9-15.4-36.7,0-20.4
		C2033.5,706.1,2040.5,729.9,2018.1,742.8z M2085.6,1314.6c-22.4-12.9-15.4-36.7,0-20.4C2101,1277.9,2107.9,1301.7,2085.6,1314.6z
		 M1978.8,1171.3c15.4-16.3,22.4,7.5,0,20.4C1956.4,1178.7,1963.4,1154.9,1978.8,1171.3z M1973.6,1298.5c15.4-16.3,22.4,7.5,0,20.4
		C1951.2,1306,1958.2,1282.2,1973.6,1298.5z M2080.9,973.6c-22.4-12.9-15.4-36.7,0-20.4C2096.3,936.9,2103.2,960.7,2080.9,973.6z
		 M1422.1,1019.9c-8.1-24.5,13-37.6,13.6-15.2C1458.1,1002.8,1447.4,1025.2,1422.1,1019.9z M1450.1,1275.3
		c20.1-10,18.4,14.8-7.1,19.1C1426.5,1274.5,1441.3,1254.7,1450.1,1275.3z M1435.4,1351.8c15.4-16.3,22.4,7.5,0,20.4
		C1413,1359.2,1419.9,1335.4,1435.4,1351.8z M1497.4,1332.2c-21.2-14.8-12.2-37.9,1.7-20.3
		C1515.9,1296.9,1520.8,1321.3,1497.4,1332.2z M1507,918.4c-16.9-19.6-2.4-39.8,6.7-19.2C1533.6,888.8,1532.4,913.5,1507,918.4z
		 M1475.6,1066.1c-0.5-25.8,23.5-32.1,17.5-10.5C1515,1060.4,1498.2,1078.6,1475.6,1066.1z M1460,1199.7
		c12.5-18.6,23.3,3.7,3.3,20.1C1439.2,1210.7,1442.2,1186.1,1460,1199.7z M1474.8,828c15.1-16.7,22.5,7,0.4,20.4
		C1452.6,835.9,1459.1,812,1474.8,828z M1449.3,919.2c-25.8,0.7-32.3-23.2-10.7-17.4C1443.2,879.9,1461.6,896.5,1449.3,919.2z
		 M1508.4,993.1c-13.8-21.9,3.5-39.7,9.5-18C1539.2,967.8,1534.2,992.1,1508.4,993.1z M1486,1143.7c-24,9.5-38.3-10.8-16-12.7
		C1466.9,1108.8,1489.8,1118.2,1486,1143.7z M1848.4,1101.9c3.6-25.6,28.3-28,18.9-7.6C1888.2,1102.5,1868.7,1117.8,1848.4,1101.9z
		 M2001.5,1095c15.4-16.3,22.4,7.5,0,20.4C1979.1,1102.5,1986.1,1078.7,2001.5,1095z M1855,789.9c-8.6-24.4,12.2-37.9,13.3-15.5
		C1890.6,772,1880.4,794.6,1855,789.9z M1829.8,1008.3c18.8-12.2,20,12.5-4.8,19.8C1806.3,1010.3,1818.8,988.8,1829.8,1008.3z
		 M1834.7,1246.7c-0.3-22.4,21.2-10.3,14.2,14.6C1823.8,1267.7,1812.2,1245.8,1834.7,1246.7z M1848.2,851.7
		c18-13.4,20.7,11.3-3.6,20.1C1824.9,855.1,1835.9,832.9,1848.2,851.7z M1925.8,1031.7c15.2-16.6,22.5,7.1,0.3,20.4
		C1903.5,1039.5,1910.1,1015.6,1925.8,1031.7z M1932.2,975.3c-22.2,13.2-39.6-4.5-17.8-10C1907.7,943.9,1931.9,949.4,1932.2,975.3z
		 M1909.1,1238c15.4-16.3,22.4,7.5,0,20.4C1886.8,1245.5,1893.7,1221.7,1909.1,1238z M1851.9,933.8c-8.8-20.7,15.8-17.5,18.7,8.2
		C1849.8,957.3,1830.8,941.3,1851.9,933.8z M1879.3,1174.6c6.6-21.5,23.4-3.2,9,18.3C1862.6,1191.2,1858.3,1166.8,1879.3,1174.6z
		 M2039.2,876c-22.4-12.9-15.4-36.7,0-20.4C2054.6,839.3,2061.6,863.1,2039.2,876z M1859.5,1330.6c17.1-14.6,21.4,9.9-2.2,20.3
		C1836.5,1335.6,1846,1312.7,1859.5,1330.6z M2060.7,1085.6c-22.4-12.9-15.4-36.7,0-20.4C2076.1,1048.8,2083.1,1072.7,2060.7,1085.6
		z M2006.3,1018.1c-22.4-12.9-15.4-36.7,0-20.4C2021.7,981.4,2028.7,1005.2,2006.3,1018.1z M2002,935.4
		c-22.9-12.1-16.8-36.1-0.8-20.4C2016,898.2,2023.9,921.7,2002,935.4z M2051,1374.5c-22.4-12.9-15.4-36.7,0-20.4
		C2066.4,1337.8,2073.4,1361.6,2051,1374.5z M1922.7,1338.7c-22.4-12.9-15.4-36.7,0-20.4C1938.1,1301.9,1945.1,1325.7,1922.7,1338.7
		z M1928.6,1126.9c-19.6-16.8-8.4-38.9,3.8-20C1950.5,1093.6,1953,1118.3,1928.6,1126.9z M2064.4,1178.5
		c-25.7,2.7-34.1-20.6-12-16.5C2055.2,1139.7,2074.8,1154.8,2064.4,1178.5z M1937.7,797c-17.1-19.4-2.9-39.7,6.5-19.3
		C1964,767.1,1963.1,791.9,1937.7,797z M1950.3,894.6c10.9,19.6-13.9,19.1-19.4-6.2C1949.9,871,1970.5,884.9,1950.3,894.6z
		 M1701.1,711.6c0.6-2.6,1.4-4.6,2.3-6.1h10.6c2.6,4.9,3,13.9-2.9,23.9C1685.2,729.1,1679.6,704.9,1701.1,711.6z M1813.8,1141.9
		c1.1,25.8-22.8,32.7-17.2,10.9C1774.5,1148.6,1790.9,1130,1813.8,1141.9z M1503.8,705.5h24.7c0.4,1.9,0.6,3.9,0.7,6
		C1510.7,723.2,1495.2,712.6,1503.8,705.5z M1742.6,781.2c-22.2-13.3-14.8-37,0.3-20.4C1758.6,744.7,1765.2,768.6,1742.6,781.2z
		 M1584.7,705.5h27.6c0,2.4-0.3,5-0.9,7.7C1595.6,718.2,1584.6,711.2,1584.7,705.5z M1800.1,903c-21.8,13.9-39.7-3.2-18.1-9.4
		C1774.5,872.4,1798.9,877.1,1800.1,903z M1756.8,1215.7c-17.1-14.6,6.4-22.7,20.4-1C1765.3,1237.7,1741.2,1231.9,1756.8,1215.7z
		 M1772.2,1072.7c15.1,16.6-9.1,21.8-20.3-1.5C1766.4,1049.8,1789.6,1058.5,1772.2,1072.7z M1753.8,1009.2
		c-24.9-6.9-24.2-31.7-5.1-19.7C1759.4,969.8,1772.2,991,1753.8,1009.2z M1776.8,844.6c-22.3-13.1-15.1-36.9,0.2-20.4
		C1792.5,808.1,1799.3,831.9,1776.8,844.6z M1412,843.9v-18.9C1417.4,825.5,1418.9,834.8,1412,843.9z M1841.6,1411.7h-27.1
		c-3-9.4,3.5-15.9,13.5-5.2C1838.2,1395.8,1844.6,1402.4,1841.6,1411.7L1841.6,1411.7z M1791.2,1373.6c20.3-9.5,18,15.2-7.5,18.9
		C1767.7,1372.2,1783,1352.7,1791.2,1373.6z M2118.3,1219.4v22.3c-10.2,7.4-20.7,2-10.2-10.8C2093.5,1220.4,2105,1212,2118.3,1219.4
		z M1548.6,825.2c18-13.4,20.8,11.2-3.5,20.1C1525.2,828.7,1536.2,806.4,1548.6,825.2z M2118.3,825.1v18.9c-2,2.6-4.7,5.3-8.2,7.7
		c-23.2-11.3-18-35.5-1.4-20.3C2112.3,826.6,2115.7,824.9,2118.3,825.1L2118.3,825.1z M2118.3,1089.3v18.1
		C2111.4,1098.7,2112.7,1089.6,2118.3,1089.3z M1528.5,1411.7h-24.7c1.6-1.3,4-2.5,7.4-3.5
		C1504.5,1388.8,1524.3,1391.3,1528.5,1411.7z M1714,1411.7h-10.6C1706.7,1406.1,1711.5,1407,1714,1411.7z M1412,1241.7v-22.3
		c3.3,1.9,6.8,4.8,10,8.9C1419.3,1234.6,1415.7,1239,1412,1241.7L1412,1241.7z M1412,1107.4v-18.1c2.5-0.2,5.8,1.5,9.7,5.7
		c15.8-16,22.2,8-0.5,20.4C1417.2,1113,1414.2,1110.2,1412,1107.4L1412,1107.4z M1612.3,1411.7h-27.6c0.1-3.2,3.6-6,11.6-6.1
		C1594.9,1385.7,1612.4,1392.2,1612.3,1411.7z M1949.8,1411.7h-20.2c-9.1-12.2-2.2-24.7,10.1-11.7
		C1952,1387,1958.9,1399.6,1949.8,1411.7z M1621.9,834c-10.1-23.8,9.7-38.6,12.2-16.3C1656.3,813.9,1647.6,837.1,1621.9,834z
		 M1596.8,923.4c-25.3,5.5-36.1-16.8-13.7-15.1C1583.5,885.8,1604.7,898.7,1596.8,923.4z M1591.4,1094.7
		c-15.8-20.4-0.3-39.8,7.7-18.9C1619.6,1066.6,1617,1091.3,1591.4,1094.7z M1651.1,873.2c14.5-17.2,22.8,6.2,1.1,20.4
		C1629.2,881.9,1634.9,857.7,1651.1,873.2z M1619.3,1147c7.4-21.2,23.5-2.3,8.3,18.6C1601.8,1163,1598.5,1138.4,1619.3,1147z
		 M1562.6,1343.8c14.4-17.2,22.8,6.1,1.2,20.3C1540.7,1352.6,1546.3,1328.4,1562.6,1343.8z M1570.8,1022.1
		c2.8-25.7,27.4-28.9,18.7-8.2C1610.6,1021.4,1591.6,1037.4,1570.8,1022.1z M1539.8,1100.5c18.3-13,20.5,11.7-4,20
		C1516.4,1103.5,1527.9,1081.5,1539.8,1100.5z M1548.3,755.1c12.3-18.8,23.3,3.4,3.6,20.1C1527.6,766.4,1530.3,741.7,1548.3,755.1z
		 M1619.5,967.7c10-23.8,34.5-19.9,20.2-2.6C1657.9,978.4,1635.1,988.3,1619.5,967.7z M1553.7,1182c11.8-19.1,23.4,2.8,4.2,20
		C1533.3,1193.9,1535.3,1169.1,1553.7,1182z M1694.7,829.3c-21.2-14.8-12.2-37.9,1.7-20.3C1713.2,794,1718.1,818.3,1694.7,829.3z
		 M1620.8,758c11.9-19,23.4,2.9,4,20C1600.3,769.7,1602.5,745,1620.8,758z M1784.8,1308.5c-25.8-1.5-30.2-25.9-9.1-18.2
		C1782.2,1268.8,1799.1,1287,1784.8,1308.5z M1719.2,938.3c-25.8-1.4-30.3-25.8-9.2-18.2C1716.4,898.6,1733.4,916.7,1719.2,938.3z
		 M1606.4,1280.3c-12.2-18.8,12.6-20,19.8,4.8C1608.3,1303.8,1586.9,1291.4,1606.4,1280.3z M1715.4,1339.7
		c12.9-18.3,23.2,4.2,2.9,20.2C1694.3,1350.3,1697.8,1325.7,1715.4,1339.7z M1652.2,1330.7c13.1-18.2,23.2,4.4,2.7,20.2
		C1631,1341.1,1634.8,1316.5,1652.2,1330.7z M1688.8,1039.2c14,17.6-10.6,21.1-20.2-2.9C1684.6,1015.9,1707.1,1026.2,1688.8,1039.2z
		 M1702.3,1260.3c-11.2-19.4,13.6-19.3,19.5,5.8C1703,1283.8,1682.2,1270.3,1702.3,1260.3z M1672.6,1191
		c-0.9-22.4,21-10.8,14.6,14.2C1662.3,1212.2,1650.1,1190.6,1672.6,1191z M1701.7,1121c11.9-19.1,23.4,2.9,4,20
		C1681.2,1132.8,1683.3,1108.1,1701.7,1121z M2017.2,1947.6c15.4-16.3,22.4,7.5,0,20.4C1994.8,1955.1,2001.8,1931.3,2017.2,1947.6z
		 M1929.5,1411h20.2c-2.3,3.1-5.6,6.1-10.1,8.7C1935.2,1417.1,1931.8,1414,1929.5,1411z M2080.9,1472c-22.4-12.9-15.4-36.7,0-20.4
		C2096.3,1435.2,2103.3,1459,2080.9,1472z M1814.6,1411h27.1c-1.6,5-5.8,10.7-13.5,15.2C1820.4,1421.7,1816.1,1415.9,1814.6,1411
		L1814.6,1411z M1527.9,1964.1c-19-12,3-23.4,20-3.9C1539.5,1984.6,1514.8,1982.3,1527.9,1964.1z M1464.8,1472.5
		c-25.4-4.9-26.6-29.7-6.7-19.3C1467.4,1432.8,1481.8,1453,1464.8,1472.5z M1992.5,1530.3c-22-13.6-14.3-37.2,0.6-20.4
		C2009,1494.1,2015.3,1518.1,1992.5,1530.3z M2018.1,1448.3c-22.4-12.9-15.4-36.7,0-20.4C2033.5,1411.6,2040.5,1435.4,2018.1,1448.3
		z M2085.6,2020.1c-22.4-12.9-15.4-36.7,0-20.4C2101,1983.4,2107.9,2007.2,2085.6,2020.1z M1978.8,1876.7c15.4-16.3,22.4,7.5,0,20.4
		C1956.4,1884.2,1963.4,1860.4,1978.8,1876.7z M1973.6,2004c15.4-16.3,22.4,7.5,0,20.4C1951.2,2011.5,1958.2,1987.7,1973.6,2004z
		 M2080.9,1679.1c-22.4-12.9-15.4-36.7,0-20.4C2096.3,1642.4,2103.2,1666.2,2080.9,1679.1z M1422.1,1725.4
		c-8.1-24.6,13-37.6,13.6-15.2C1458.1,1708.3,1447.4,1730.7,1422.1,1725.4z M1450.1,1980.8c20.1-10,18.4,14.8-7.1,19.1
		C1426.5,1980,1441.3,1960.1,1450.1,1980.8z M1435.4,2057.3c15.4-16.3,22.4,7.5,0,20.4C1413,2064.7,1419.9,2040.9,1435.4,2057.3z
		 M1497.4,2037.7c-21.2-14.8-12.2-37.9,1.7-20.3C1515.9,2002.4,1520.8,2026.7,1497.4,2037.7z M1507,1623.9
		c-16.9-19.6-2.4-39.8,6.7-19.2C1533.6,1594.3,1532.4,1619,1507,1623.9z M1475.6,1771.6c-0.5-25.8,23.5-32.1,17.5-10.5
		C1515,1765.9,1498.2,1784.1,1475.6,1771.6z M1460,1905.1c12.5-18.6,23.3,3.7,3.3,20.1C1439.1,1916.2,1442.1,1891.5,1460,1905.1z
		 M1474.8,1533.5c15.1-16.7,22.5,7,0.4,20.4C1452.6,1541.4,1459.1,1517.5,1474.8,1533.5z M1449.3,1624.7
		c-25.8,0.7-32.3-23.2-10.7-17.4C1443.2,1585.4,1461.6,1602,1449.3,1624.7z M1508.4,1698.6c-13.8-21.9,3.5-39.7,9.5-18
		C1539.2,1673.3,1534.2,1697.6,1508.4,1698.6z M1486,1849.2c-24,9.5-38.3-10.8-16-12.7C1466.8,1814.3,1489.8,1823.6,1486,1849.2z
		 M1848.4,1807.4c3.6-25.6,28.3-28,18.9-7.6C1888.2,1807.9,1868.7,1823.3,1848.4,1807.4z M2001.5,1800.5c15.4-16.3,22.4,7.5,0,20.4
		C1979.1,1807.9,1986.1,1784.1,2001.5,1800.5z M1855,1495.4c-8.6-24.4,12.2-37.9,13.3-15.5C1890.6,1477.5,1880.4,1500.1,1855,1495.4
		z M1829.8,1713.8c18.8-12.2,20,12.6-4.8,19.8C1806.3,1715.8,1818.8,1694.3,1829.8,1713.8z M1834.7,1952.2
		c-0.3-22.4,21.2-10.3,14.2,14.6C1823.8,1973.2,1812.2,1951.3,1834.7,1952.2z M1848.2,1557.2c18-13.4,20.7,11.3-3.6,20.1
		C1824.9,1560.6,1835.9,1538.4,1848.2,1557.2z M1925.8,1737.2c15.2-16.6,22.5,7.1,0.3,20.4C1903.5,1745,1910.1,1721.1,1925.8,1737.2
		z M1932.2,1680.7c-22.2,13.2-39.6-4.5-17.8-10C1907.7,1649.4,1931.9,1654.9,1932.2,1680.7z M1909.1,1943.5
		c15.4-16.3,22.4,7.5,0,20.4C1886.7,1951,1893.7,1927.2,1909.1,1943.5z M1851.9,1639.3c-8.8-20.7,15.8-17.5,18.7,8.2
		C1849.7,1662.8,1830.8,1646.8,1851.9,1639.3z M1879.3,1880.1c6.6-21.5,23.4-3.2,9,18.3C1862.6,1896.7,1858.3,1872.2,1879.3,1880.1z
		 M2039.2,1581.5c-22.4-12.9-15.4-36.7,0-20.4C2054.6,1544.8,2061.6,1568.6,2039.2,1581.5z M1859.5,2036.1
		c17.1-14.6,21.4,9.9-2.2,20.3C1836.5,2041.1,1846,2018.2,1859.5,2036.1L1859.5,2036.1z M2060.7,1791.1c-22.4-12.9-15.4-36.7,0-20.4
		C2076.1,1754.3,2083.1,1778.1,2060.7,1791.1z M2006.3,1723.6c-22.4-12.9-15.4-36.7,0-20.4
		C2021.7,1686.9,2028.7,1710.7,2006.3,1723.6z M2002,1640.9c-22.9-12.1-16.8-36.1-0.8-20.4C2016,1603.6,2023.9,1627.2,2002,1640.9z
		 M2051,2080c-22.4-12.9-15.4-36.7,0-20.4C2066.4,2043.3,2073.4,2067.1,2051,2080z M1922.7,2044.2c-22.4-12.9-15.4-36.7,0-20.4
		C1938.1,2007.4,1945.1,2031.2,1922.7,2044.2z M1928.6,1832.4c-19.6-16.8-8.4-38.9,3.8-20C1950.5,1799.1,1953,1823.8,1928.6,1832.4z
		 M2064.3,1884c-25.7,2.7-34.1-20.6-12-16.5C2055.2,1845.2,2074.8,1860.3,2064.3,1884z M1937.7,1502.5c-17.1-19.4-2.9-39.7,6.5-19.3
		C1964,1472.6,1963.1,1497.4,1937.7,1502.5z M1950.3,1600.1c10.9,19.6-13.9,19.1-19.4-6.2
		C1949.9,1576.5,1970.5,1590.4,1950.3,1600.1z M1701.1,1417.1c0.6-2.6,1.4-4.6,2.3-6.1h10.6c2.6,4.9,3,13.9-2.9,23.9
		C1685.2,1434.6,1679.6,1410.4,1701.1,1417.1z M1813.8,1847.4c1.1,25.8-22.8,32.7-17.2,10.9
		C1774.5,1854.1,1790.9,1835.5,1813.8,1847.4z M1503.8,1411h24.7c0.4,1.9,0.6,3.9,0.7,6C1510.7,1428.6,1495.2,1418.1,1503.8,1411z
		 M1742.5,1486.7c-22.2-13.3-14.8-37,0.3-20.4C1758.6,1450.2,1765.1,1474.1,1742.5,1486.7z M1584.7,1411h27.6c0,2.4-0.3,4.9-0.9,7.7
		C1595.5,1423.7,1584.6,1416.7,1584.7,1411z M1800.1,1608.4c-21.8,13.9-39.7-3.2-18.1-9.4
		C1774.5,1577.9,1798.9,1582.6,1800.1,1608.4z M1756.8,1921.2c-17.1-14.6,6.4-22.7,20.4-1
		C1765.3,1943.2,1741.2,1937.3,1756.8,1921.2z M1772.2,1778.2c15.1,16.6-9.1,21.8-20.3-1.5C1766.4,1755.3,1789.6,1764,1772.2,1778.2
		z M1753.8,1714.7c-24.9-6.9-24.2-31.7-5.1-19.7C1759.4,1675.3,1772.2,1696.5,1753.8,1714.7z M1776.8,1550.1
		c-22.3-13.1-15.1-36.9,0.2-20.4C1792.5,1513.5,1799.3,1537.4,1776.8,1550.1z M1412,1549.4v-18.9
		C1417.4,1531,1418.9,1540.3,1412,1549.4z M1841.6,2117.2h-27.1c-3-9.4,3.5-15.9,13.5-5.2
		C1838.1,2101.3,1844.6,2107.8,1841.6,2117.2L1841.6,2117.2z M1791.2,2079c20.3-9.5,18,15.2-7.5,18.9
		C1767.7,2077.7,1783,2058.2,1791.2,2079z M2118.2,1924.9v22.3c-10.2,7.4-20.7,2-10.2-10.8C2093.5,1925.9,2105,1917.5,2118.2,1924.9
		z M1548.6,1530.7c18-13.4,20.8,11.2-3.5,20.1C1525.2,1534.2,1536.2,1511.9,1548.6,1530.7z M2118.2,1530.6v18.9
		c-2,2.6-4.7,5.3-8.2,7.7c-23.2-11.3-18-35.5-1.4-20.3C2112.3,1532.1,2115.7,1530.4,2118.2,1530.6L2118.2,1530.6z M2118.2,1794.8
		v18.1C2111.4,1804.2,2112.7,1795.1,2118.2,1794.8z M1528.5,2117.2h-24.7c1.6-1.3,4-2.5,7.4-3.5
		C1504.5,2094.3,1524.3,2096.8,1528.5,2117.2z M1714,2117.2h-10.6C1706.7,2111.6,1711.4,2112.5,1714,2117.2z M1412,1947.2v-22.3
		c3.3,1.9,6.8,4.8,10,8.9C1419.3,1940.1,1415.7,1944.5,1412,1947.2L1412,1947.2z M1412,1812.9v-18.1c2.5-0.2,5.8,1.5,9.7,5.7
		c15.8-16,22.2,8-0.5,20.4C1417.2,1818.4,1414.2,1815.7,1412,1812.9L1412,1812.9z M1612.3,2117.2h-27.6c0.1-3.2,3.6-6,11.6-6.1
		C1594.9,2091.2,1612.4,2097.7,1612.3,2117.2z M1949.8,2117.2h-20.2c-9.1-12.2-2.2-24.7,10.1-11.7
		C1951.9,2092.5,1958.9,2105.1,1949.8,2117.2z M1621.9,1539.5c-10.1-23.8,9.7-38.6,12.2-16.3
		C1656.3,1519.4,1647.6,1542.6,1621.9,1539.5z M1596.8,1628.8c-25.3,5.5-36.1-16.8-13.7-15.1
		C1583.5,1591.3,1604.7,1604.2,1596.8,1628.8z M1591.4,1800.2c-15.8-20.4-0.3-39.8,7.7-18.9
		C1619.6,1772.1,1617,1796.8,1591.4,1800.2z M1651.1,1578.7c14.5-17.2,22.8,6.2,1.1,20.4C1629.2,1587.3,1634.9,1563.2,1651.1,1578.7
		z M1619.2,1852.5c7.4-21.2,23.5-2.3,8.3,18.6C1601.8,1868.5,1598.5,1843.9,1619.2,1852.5z M1562.6,2049.3
		c14.4-17.2,22.8,6.1,1.2,20.4C1540.7,2058.1,1546.3,2033.9,1562.6,2049.3z M1570.8,1727.6c2.8-25.7,27.4-28.9,18.7-8.2
		C1610.6,1726.9,1591.6,1742.9,1570.8,1727.6z M1539.8,1806c18.3-13,20.5,11.7-4,20C1516.4,1809,1527.9,1787,1539.8,1806z
		 M1548.3,1460.6c12.3-18.8,23.3,3.4,3.6,20.1C1527.5,1471.9,1530.3,1447.2,1548.3,1460.6z M1619.5,1673.2
		c10-23.8,34.5-19.9,20.2-2.6C1657.8,1683.9,1635.1,1693.8,1619.5,1673.2z M1553.7,1887.5c11.8-19.1,23.4,2.8,4.2,20
		C1533.3,1899.4,1535.3,1874.6,1553.7,1887.5z M1694.7,1534.8c-21.2-14.8-12.2-37.9,1.7-20.3
		C1713.2,1499.5,1718.1,1523.8,1694.7,1534.8z M1620.8,1463.5c11.9-19,23.4,2.9,4,20C1600.3,1475.2,1602.5,1450.5,1620.8,1463.5z
		 M1784.8,2014c-25.8-1.5-30.2-25.9-9.1-18.2C1782.2,1974.3,1799.1,1992.5,1784.8,2014z M1719.2,1643.8
		c-25.8-1.4-30.3-25.8-9.2-18.2C1716.4,1604.1,1733.4,1622.2,1719.2,1643.8z M1606.4,1985.8c-12.2-18.8,12.6-20,19.8,4.8
		C1608.3,2009.3,1586.9,1996.9,1606.4,1985.8z M1715.3,2045.2c12.9-18.3,23.2,4.2,2.9,20.2
		C1694.2,2055.8,1697.8,2031.2,1715.3,2045.2L1715.3,2045.2z M1652.2,2036.2c13.1-18.2,23.2,4.4,2.7,20.2
		C1631,2046.6,1634.8,2022,1652.2,2036.2L1652.2,2036.2z M1688.8,1744.7c14,17.6-10.6,21.1-20.2-2.9
		C1684.6,1721.4,1707.1,1731.7,1688.8,1744.7z M1702.3,1965.8c-11.2-19.4,13.6-19.3,19.5,5.8
		C1703,1989.3,1682.2,1975.8,1702.3,1965.8z M1672.6,1896.5c-0.9-22.4,21-10.8,14.6,14.2C1662.2,1917.7,1650.1,1896.1,1672.6,1896.5
		z M1701.7,1826.5c11.9-19.1,23.4,2.9,4,20C1681.2,1838.3,1683.3,1813.6,1701.7,1826.5z"/>
</g>
</svg>
