<svg width="64" height="64" viewBox="0 0 64 64" fill="none" xmlns="http://www.w3.org/2000/svg">
<path d="M32.8663 31.3105C32.1552 31.6738 32.1552 32.5819 32.8663 32.9452L44.0663 38.6667C44.7775 39.0299 45.6663 38.5758 45.6663 37.8493L45.6663 26.4064C45.6663 25.6799 44.7775 25.2258 44.0663 25.589L32.8663 31.3105Z" fill="white"/>
<path fill-rule="evenodd" clip-rule="evenodd" d="M11 32C11 33.7857 11.8003 35.4701 13.1659 36.5588L39.4 57.4737C41.8293 59.4104 45.3135 58.9394 47.1822 56.4216C49.0509 53.9038 48.5965 50.2927 46.1671 48.356L23.787 32.8215C23.214 32.4237 23.214 31.5763 23.787 31.1785L46.1671 15.644C48.5965 13.7073 49.0509 10.0962 47.1822 7.5784C45.3135 5.06063 41.8293 4.58962 39.4 6.52637L13.1659 27.4412C11.8003 28.5299 11 30.2143 11 32Z" fill="white"/>
</svg>
