<svg width="64" height="64" viewBox="0 0 64 64" fill="none" xmlns="http://www.w3.org/2000/svg">
<path d="M30.4667 31.3105C31.1778 31.6738 31.1778 32.5819 30.4667 32.9452L19.2667 38.6667C18.5556 39.0299 17.6667 38.5758 17.6667 37.8493L17.6667 26.4064C17.6667 25.6799 18.5556 25.2258 19.2667 25.589L30.4667 31.3105Z" fill="white"/>
<path fill-rule="evenodd" clip-rule="evenodd" d="M52.333 32C52.333 33.7857 51.5327 35.4701 50.1671 36.5588L23.9331 57.4737C21.5037 59.4104 18.0195 58.9394 16.1508 56.4216C14.2821 53.9038 14.7365 50.2927 17.1659 48.356L39.546 32.8215C40.119 32.4237 40.119 31.5763 39.546 31.1785L17.1659 15.644C14.7365 13.7073 14.2821 10.0962 16.1508 7.5784C18.0195 5.06063 21.5037 4.58962 23.9331 6.52637L50.1671 27.4412C51.5327 28.5299 52.333 30.2143 52.333 32Z" fill="white"/>
</svg>
